<svg width="30" height="36" viewBox="0 0 30 36" fill="none" xmlns="http://www.w3.org/2000/svg">
<path fill-rule="evenodd" clip-rule="evenodd" d="M0.763552 2.73471C0.815624 2.25573 0.969113 1.79664 1.21181 1.39395C1.45452 0.991251 1.77974 0.656052 2.16163 0.414996C2.54352 0.17394 2.97154 0.0336746 3.41167 0.005351C3.85181 -0.0229726 4.29191 0.0614264 4.697 0.251838C6.7447 1.20955 11.3337 3.48568 17.1568 7.16252C22.9817 10.8415 27.0791 14.0542 28.8588 15.5119C30.3782 16.7586 30.382 19.2309 28.8607 20.4818C27.0984 21.931 23.0512 25.1016 17.1568 28.827C11.2566 32.5523 6.72157 34.801 4.69314 35.7461C2.94623 36.5625 0.991075 35.3242 0.763552 33.2632C0.497466 30.8542 0 25.3843 0 17.9968C0 10.6136 0.495538 5.14585 0.763552 2.73471Z" fill="white"/>
</svg>
