<svg width="13" height="13" viewBox="0 0 13 13" fill="none" xmlns="http://www.w3.org/2000/svg">
<path d="M1.75 12.4375C1.53269 12.4375 1.31656 12.3782 1.12537 12.2606C0.953396 12.1539 0.811459 12.0051 0.712971 11.8283C0.614483 11.6514 0.562696 11.4524 0.5625 11.25V1.75003C0.5625 1.33797 0.77625 0.955594 1.12537 0.739469C1.29773 0.633497 1.49421 0.573103 1.69634 0.563962C1.89846 0.554822 2.09959 0.597237 2.28081 0.687219L11.7808 5.43722C11.9781 5.53602 12.1439 5.68776 12.2598 5.87546C12.3757 6.06317 12.4371 6.27942 12.4371 6.50003C12.4371 6.72064 12.3757 6.9369 12.2598 7.1246C12.1439 7.3123 11.9781 7.46404 11.7808 7.56284L2.28081 12.3128C2.11456 12.396 1.9305 12.4375 1.75 12.4375Z" fill="#353535"/>
</svg>
