<svg xmlns="http://www.w3.org/2000/svg" xmlns:xlink="http://www.w3.org/1999/xlink" width="1080" zoomAndPan="magnify" viewBox="0 0 810 809.999993" height="1080" preserveAspectRatio="xMidYMid meet" version="1.0"><defs><filter x="0%" y="0%" width="100%" height="100%" id="a734b73038"><feColorMatrix values="0 0 0 0 1 0 0 0 0 1 0 0 0 0 1 0 0 0 1 0" color-interpolation-filters="sRGB"/></filter><clipPath id="6a7c9f7f44"><path d="M 128 476 L 328 476 L 328 704.75 L 128 704.75 Z M 128 476 " clip-rule="nonzero"/></clipPath><mask id="5080810609"><g filter="url(#a734b73038)"><rect x="-81" width="972" fill="#000000" y="-80.999999" height="971.999992" fill-opacity="0.27"/></g></mask><clipPath id="6327ca67ed"><path d="M 0.199219 2 L 389 2 L 389 24 L 0.199219 24 Z M 0.199219 2 " clip-rule="nonzero"/></clipPath><clipPath id="30aa37e9db"><rect x="0" width="389" y="0" height="25"/></clipPath><mask id="9491044f7d"><g filter="url(#a734b73038)"><rect x="-81" width="972" fill="#000000" y="-80.999999" height="971.999992" fill-opacity="0.46"/></g></mask><clipPath id="61b959c49b"><path d="M 1 1 L 207 1 L 207 176.640625 L 1 176.640625 Z M 1 1 " clip-rule="nonzero"/></clipPath><clipPath id="b9e44738e6"><rect x="0" width="209" y="0" height="177"/></clipPath><mask id="e83de735b4"><g filter="url(#a734b73038)"><rect x="-81" width="972" fill="#000000" y="-80.999999" height="971.999992" fill-opacity="0.56"/></g></mask><clipPath id="09dde68a9c"><rect x="0" width="20" y="0" height="11"/></clipPath></defs><path fill="#000000" d="M 203.46875 194.53125 C 202.515625 202.527344 201.5625 210.632812 202.65625 218.613281 C 203.007812 221.167969 203.585938 223.746094 204.894531 225.976562 C 206.199219 228.203125 208.328125 230.058594 210.867188 230.53125 C 213.214844 228.300781 216.464844 225.652344 217.878906 222.738281 C 219.695312 218.996094 219.695312 214.640625 219.253906 210.503906 C 218.796875 206.222656 217.855469 201.851562 215.371094 198.332031 C 212.890625 194.816406 207.714844 193.816406 203.46875 194.53125 Z M 203.46875 194.53125 " fill-opacity="1" fill-rule="nonzero"/><g clip-path="url(#6a7c9f7f44)"><path fill="#000000" d="M 327.714844 667.835938 C 327.5 636.359375 324.371094 601.351562 323.714844 581.789062 C 320.519531 486.632812 315.382812 476.613281 315.382812 476.613281 L 220.101562 485.703125 L 143.660156 495.03125 L 128.625 703.894531 L 229.800781 704.191406 L 236.492188 645.441406 L 237.523438 704.214844 L 327.613281 704.484375 Z M 327.714844 667.835938 " fill-opacity="1" fill-rule="nonzero"/></g><path fill="#000000" d="M 236.492188 646.132812 C 236.222656 646.132812 235.96875 645.976562 235.855469 645.714844 C 235.703125 645.363281 235.867188 644.953125 236.21875 644.804688 L 276.800781 627.335938 C 277.152344 627.183594 277.5625 627.34375 277.714844 627.699219 C 277.863281 628.050781 277.703125 628.457031 277.351562 628.605469 L 236.765625 646.078125 C 236.675781 646.113281 236.582031 646.132812 236.492188 646.132812 Z M 236.492188 646.132812 " fill-opacity="1" fill-rule="nonzero"/><path fill="#ffffff" d="M 421.957031 644.078125 L 819.042969 644.078125 L 819.042969 665.539062 L 421.957031 665.539062 Z M 421.957031 644.078125 " fill-opacity="1" fill-rule="nonzero"/><g mask="url(#5080810609)"><g transform="matrix(1, 0, 0, 1, 421, 642)"><g clip-path="url(#30aa37e9db)"><g clip-path="url(#6327ca67ed)"><path fill="#000000" d="M 0.957031 2.078125 L 398.042969 2.078125 L 398.042969 23.539062 L 0.957031 23.539062 Z M 0.957031 2.078125 " fill-opacity="1" fill-rule="nonzero"/></g></g></g></g><path fill="#000000" d="M 630.554688 343.652344 L 606.519531 478.9375 L 720.21875 489.847656 L 716.128906 366.324219 Z M 630.554688 343.652344 " fill-opacity="1" fill-rule="nonzero"/><path fill="#ffd497" d="M 670.871094 391.265625 L 676.515625 475.195312 L 635.476562 476.035156 L 636.367188 420.703125 Z M 670.871094 391.265625 " fill-opacity="1" fill-rule="nonzero"/><path fill="#000000" d="M 622.308594 466.996094 L 617.472656 467.582031 C 605.761719 469 591.664062 480.03125 587.472656 491.050781 L 555.894531 565.140625 L 569.09375 510.132812 L 529.765625 502.203125 L 513.96875 577.648438 C 510.769531 588.929688 510.207031 600.792969 512.332031 612.324219 C 514.613281 624.746094 525.328125 633.835938 537.957031 634.066406 C 552.253906 634.328125 565.621094 627.003906 573.101562 614.816406 L 598.433594 573.535156 L 626.894531 642.601562 L 773.308594 653.3125 C 789.585938 654.503906 804.296875 643.640625 807.945312 627.734375 C 811.125 613.890625 809.160156 599.367188 802.421875 586.863281 L 757.976562 497.859375 C 755.957031 493.820312 753.277344 489.929688 750.113281 486.339844 C 738.476562 473.136719 721.390625 466.023438 703.785156 465.953125 L 681.171875 465.863281 Z M 622.308594 466.996094 " fill-opacity="1" fill-rule="nonzero"/><path fill="#000000" d="M 614.054688 354.691406 C 614.054688 354.691406 585.1875 332.117188 614.726562 313.601562 C 634.894531 300.960938 669.308594 317.722656 669.308594 317.722656 Z M 614.054688 354.691406 " fill-opacity="1" fill-rule="nonzero"/><path fill="#000000" d="M 670.929688 318.0625 C 672.714844 318.429688 674.476562 318.871094 676.222656 319.382812 C 677.96875 319.894531 679.683594 320.476562 681.375 321.128906 C 683.0625 321.78125 684.714844 322.503906 686.335938 323.289062 C 687.953125 324.074219 689.523438 324.925781 691.054688 325.839844 C 692.585938 326.75 694.0625 327.722656 695.492188 328.753906 C 696.917969 329.785156 698.289062 330.867188 699.601562 332.007812 C 700.914062 333.144531 702.160156 334.328125 703.34375 335.566406 C 704.527344 336.800781 705.640625 338.074219 706.683594 339.394531 C 707.726562 340.714844 708.691406 342.070312 709.585938 343.460938 C 710.480469 344.851562 711.292969 346.273438 712.027344 347.722656 C 712.761719 349.171875 713.414062 350.644531 713.980469 352.140625 C 714.550781 353.632812 715.035156 355.144531 715.429688 356.667969 C 715.828125 358.191406 716.136719 359.726562 716.359375 361.265625 C 716.582031 362.804688 716.71875 364.347656 716.761719 365.886719 C 716.808594 367.429688 716.765625 368.960938 716.632812 370.488281 C 716.5 372.015625 716.277344 373.527344 715.96875 375.027344 C 715.660156 376.523438 715.265625 378 714.785156 379.457031 C 714.300781 380.910156 713.734375 382.335938 713.085938 383.734375 C 712.433594 385.132812 711.703125 386.496094 710.890625 387.820312 C 710.074219 389.148438 709.183594 390.433594 708.21875 391.675781 C 707.25 392.921875 706.207031 394.117188 705.09375 395.265625 C 703.984375 396.414062 702.800781 397.507812 701.554688 398.550781 C 700.308594 399.589844 698.996094 400.574219 697.628906 401.5 C 696.257812 402.421875 694.832031 403.285156 693.351562 404.085938 C 691.871094 404.882812 690.34375 405.617188 688.769531 406.285156 C 687.195312 406.949219 685.582031 407.546875 683.925781 408.074219 C 682.273438 408.597656 680.585938 409.054688 678.867188 409.4375 C 677.148438 409.816406 675.40625 410.125 673.640625 410.359375 C 671.875 410.59375 670.089844 410.75 668.296875 410.835938 C 666.5 410.917969 664.695312 410.925781 662.886719 410.855469 C 661.074219 410.789062 659.269531 410.644531 657.460938 410.425781 C 655.65625 410.207031 653.863281 409.914062 652.078125 409.546875 C 650.292969 409.179688 648.53125 408.738281 646.785156 408.226562 C 645.039062 407.714844 643.324219 407.132812 641.632812 406.476562 C 639.945312 405.824219 638.292969 405.105469 636.671875 404.320312 C 635.054688 403.53125 633.484375 402.683594 631.953125 401.769531 C 630.421875 400.855469 628.945312 399.886719 627.515625 398.855469 C 626.089844 397.824219 624.71875 396.742188 623.40625 395.601562 C 622.09375 394.464844 620.847656 393.277344 619.664062 392.042969 C 618.480469 390.808594 617.367188 389.53125 616.324219 388.214844 C 615.28125 386.894531 614.316406 385.539062 613.421875 384.148438 C 612.527344 382.757812 611.714844 381.335938 610.980469 379.886719 C 610.246094 378.4375 609.59375 376.964844 609.027344 375.46875 C 608.457031 373.976562 607.972656 372.464844 607.578125 370.941406 C 607.179688 369.414062 606.871094 367.882812 606.648438 366.34375 C 606.425781 364.800781 606.289062 363.261719 606.246094 361.722656 C 606.199219 360.179688 606.242188 358.644531 606.375 357.117188 C 606.507812 355.59375 606.730469 354.078125 607.039062 352.582031 C 607.347656 351.082031 607.742188 349.605469 608.222656 348.152344 C 608.707031 346.695312 609.273438 345.269531 609.921875 343.875 C 610.574219 342.476562 611.304688 341.113281 612.117188 339.785156 C 612.933594 338.460938 613.824219 337.175781 614.789062 335.929688 C 615.757812 334.6875 616.800781 333.492188 617.910156 332.34375 C 619.023438 331.195312 620.207031 330.101562 621.453125 329.058594 C 622.699219 328.019531 624.011719 327.035156 625.378906 326.109375 C 626.75 325.183594 628.175781 324.324219 629.65625 323.523438 C 631.136719 322.722656 632.660156 321.992188 634.238281 321.324219 C 635.8125 320.660156 637.425781 320.0625 639.082031 319.535156 C 640.734375 319.007812 642.421875 318.554688 644.140625 318.171875 C 645.859375 317.789062 647.601562 317.484375 649.367188 317.25 C 651.132812 317.015625 652.914062 316.855469 654.710938 316.773438 C 656.507812 316.691406 658.3125 316.683594 660.121094 316.75 C 661.933594 316.820312 663.738281 316.964844 665.546875 317.183594 C 667.351562 317.402344 669.144531 317.695312 670.929688 318.0625 Z M 670.929688 318.0625 " fill-opacity="1" fill-rule="nonzero"/><path fill="#000000" d="M 636.367188 420.703125 L 666.609375 417.03125 L 635.898438 449.882812 Z M 636.367188 420.703125 " fill-opacity="1" fill-rule="nonzero"/><path fill="#ffd497" d="M 680.363281 395.320312 C 666.589844 431.453125 636.460938 428.351562 636.460938 428.351562 C 610.863281 427.960938 598.367188 411.511719 595.972656 391.453125 C 594.136719 376.027344 604.410156 353.175781 609.929688 340.136719 C 611.792969 335.738281 614.953125 331.957031 619.160156 329.664062 C 655.207031 310.046875 702.308594 337.75 680.363281 395.320312 Z M 680.363281 395.320312 " fill-opacity="1" fill-rule="nonzero"/><path fill="#000000" d="M 614.078125 389.039062 L 610.640625 387.636719 C 609.5 387.066406 609.015625 385.699219 609.589844 384.429688 L 613.132812 378.714844 C 613.386719 378.308594 613.921875 378.183594 614.332031 378.433594 C 614.738281 378.6875 614.867188 379.226562 614.613281 379.636719 L 611.128906 385.238281 C 610.988281 385.558594 611.117188 385.925781 611.363281 386.050781 L 614.738281 387.425781 C 615.183594 387.605469 615.398438 388.113281 615.214844 388.558594 C 615.078125 388.894531 614.753906 389.097656 614.410156 389.097656 C 614.292969 389.101562 614.183594 389.082031 614.078125 389.039062 Z M 614.078125 389.039062 " fill-opacity="1" fill-rule="nonzero"/><path fill="#000000" d="M 637.554688 376.125 C 637.554688 376.59375 637.464844 377.046875 637.285156 377.480469 C 637.105469 377.914062 636.847656 378.296875 636.515625 378.628906 C 636.183594 378.960938 635.800781 379.214844 635.367188 379.394531 C 634.933594 379.574219 634.484375 379.664062 634.011719 379.664062 C 633.542969 379.664062 633.09375 379.574219 632.660156 379.394531 C 632.226562 379.214844 631.84375 378.960938 631.511719 378.628906 C 631.179688 378.296875 630.921875 377.914062 630.742188 377.480469 C 630.5625 377.046875 630.472656 376.59375 630.472656 376.125 C 630.472656 375.65625 630.5625 375.203125 630.742188 374.769531 C 630.921875 374.335938 631.179688 373.953125 631.511719 373.621094 C 631.84375 373.289062 632.226562 373.035156 632.660156 372.855469 C 633.09375 372.675781 633.542969 372.585938 634.011719 372.585938 C 634.484375 372.585938 634.933594 372.675781 635.367188 372.855469 C 635.800781 373.035156 636.183594 373.289062 636.515625 373.621094 C 636.847656 373.953125 637.105469 374.335938 637.285156 374.769531 C 637.464844 375.203125 637.554688 375.65625 637.554688 376.125 Z M 637.554688 376.125 " fill-opacity="1" fill-rule="nonzero"/><path fill="#000000" d="M 607.042969 367.023438 C 605.253906 366.722656 603.5625 367.925781 603.261719 369.714844 C 602.960938 371.503906 604.164062 373.195312 605.953125 373.496094 C 607.742188 373.800781 609.433594 372.59375 609.738281 370.804688 C 610.035156 369.015625 608.828125 367.324219 607.042969 367.023438 Z M 607.042969 367.023438 " fill-opacity="1" fill-rule="nonzero"/><path fill="#000000" d="M 609.0625 396.597656 C 608.660156 396.332031 608.550781 395.796875 608.8125 395.394531 C 609.074219 394.992188 609.617188 394.886719 610.019531 395.144531 C 610.113281 395.203125 619.523438 401.238281 628.929688 395.765625 C 629.347656 395.523438 629.878906 395.667969 630.121094 396.078125 C 630.359375 396.496094 630.21875 397.027344 629.804688 397.269531 C 626.519531 399.179688 623.273438 399.835938 620.359375 399.835938 C 614.085938 399.835938 609.347656 396.785156 609.0625 396.597656 Z M 609.0625 396.597656 " fill-opacity="1" fill-rule="nonzero"/><path fill="#000000" d="M 608.121094 348.261719 C 603.480469 348.304688 600.5625 350.613281 599.117188 352.175781 C 598.40625 352.945312 598.234375 354.066406 598.660156 355.027344 C 599.183594 356.214844 600.484375 356.863281 601.753906 356.550781 C 603.980469 356 606.394531 356.066406 610.207031 356.082031 C 615.226562 356.101562 614.585938 351.957031 614.585938 351.957031 C 614.585938 351.957031 614.082031 348.203125 608.121094 348.261719 Z M 608.121094 348.261719 " fill-opacity="1" fill-rule="nonzero"/><path fill="#000000" d="M 640.84375 353.773438 C 646.539062 355.449219 651.789062 360.644531 653.050781 362.632812 C 653.675781 363.613281 653.511719 364.738281 652.675781 365.5 C 651.636719 366.441406 649.820312 366.59375 648.367188 365.855469 C 645.804688 364.546875 640.390625 361.78125 635.691406 360.457031 C 629.507812 358.707031 631.667969 355.003906 631.667969 355.003906 C 631.667969 355.003906 633.527344 351.621094 640.84375 353.773438 Z M 640.84375 353.773438 " fill-opacity="1" fill-rule="nonzero"/><path fill="#000000" d="M 697.152344 359.425781 C 621.554688 351 632.507812 320.9375 632.507812 320.9375 C 708.8125 316.804688 697.152344 359.429688 697.152344 359.425781 Z M 697.152344 359.425781 " fill-opacity="1" fill-rule="nonzero"/><path fill="#000000" d="M 712.03125 370.921875 L 671.589844 395.03125 L 674.980469 349.175781 Z M 712.03125 370.921875 " fill-opacity="1" fill-rule="nonzero"/><path fill="#ffd497" d="M 691.496094 383.894531 C 683.421875 379.511719 673.320312 382.503906 668.933594 390.578125 C 664.550781 398.652344 667.542969 408.757812 675.617188 413.140625 C 683.691406 417.519531 693.792969 414.53125 698.175781 406.457031 C 702.5625 398.382812 699.570312 388.28125 691.496094 383.894531 Z M 691.496094 383.894531 " fill-opacity="1" fill-rule="nonzero"/><path fill="#ffd497" d="M 676.875 401.058594 C 681.605469 389.316406 691.886719 395.273438 691.886719 395.273438 " fill-opacity="1" fill-rule="nonzero"/><path fill="#ffd497" d="M 642.058594 488.027344 C 610.171875 488.027344 622.3125 467 622.3125 467 L 633.609375 465.195312 L 688.394531 465.726562 C 687.660156 469.0625 673.945312 488.027344 642.058594 488.027344 Z M 642.058594 488.027344 " fill-opacity="1" fill-rule="nonzero"/><path fill="#ffd497" d="M 665.15625 609.511719 L 624.058594 615.179688 L 624.808594 635.714844 L 666.046875 644.195312 C 666.046875 644.195312 665.328125 616.585938 665.15625 609.511719 Z M 665.15625 609.511719 " fill-opacity="1" fill-rule="nonzero"/><path fill="#000000" d="M 597.613281 573.832031 C 597.554688 573.664062 591.597656 556.777344 594.90625 537.921875 C 598.183594 519.230469 600.957031 510.808594 600.984375 510.726562 C 601.140625 510.273438 601.628906 510.023438 602.085938 510.175781 C 602.539062 510.328125 602.789062 510.824219 602.636719 511.28125 C 602.609375 511.363281 599.875 519.679688 596.621094 538.222656 C 593.394531 556.609375 599.195312 573.078125 599.253906 573.242188 C 599.414062 573.695312 599.179688 574.195312 598.730469 574.359375 C 598.632812 574.390625 598.53125 574.410156 598.433594 574.410156 C 598.074219 574.410156 597.742188 574.1875 597.613281 573.832031 Z M 597.613281 573.832031 " fill-opacity="1" fill-rule="nonzero"/><path fill="#000000" d="M 613.515625 569.277344 L 616.8125 562.789062 L 623.917969 566.242188 L 620.765625 572.75 Z M 613.515625 569.277344 " fill-opacity="1" fill-rule="nonzero"/><path fill="#000000" d="M 579.050781 648.976562 L 577.96875 653.027344 C 577.738281 653.898438 578.378906 654.160156 578.894531 653.40625 L 581.324219 649.886719 C 580.945312 648.890625 580.0625 648.484375 579.050781 648.976562 Z M 579.050781 648.976562 " fill-opacity="1" fill-rule="nonzero"/><path fill="#000000" d="M 613.796875 568.664062 L 617.433594 570.414062 L 621.058594 572.132812 L 590.464844 637.304688 L 590.300781 637.652344 L 590.238281 637.621094 L 581.09375 650.355469 C 580.695312 649.417969 579.816406 649.027344 578.832031 649.425781 L 582.492188 634.441406 L 582.386719 634.394531 L 582.609375 633.929688 Z M 613.796875 568.664062 " fill-opacity="1" fill-rule="nonzero"/><path fill="#ffd497" d="M 616.511719 563.417969 L 617.34375 561.773438 C 618.496094 559.492188 621 558.421875 622.933594 559.386719 C 624.808594 560.324219 625.46875 562.832031 624.4375 565.082031 L 623.628906 566.851562 Z M 616.511719 563.417969 " fill-opacity="1" fill-rule="nonzero"/><path fill="#ffd497" d="M 560.847656 646.875 C 562.527344 647.511719 564.394531 647.171875 565.714844 645.988281 L 577.335938 635.582031 C 582.710938 630.769531 591.226562 627.414062 598.105469 630.914062 C 600.234375 631.996094 601.960938 633.78125 603.882812 635.171875 C 608.765625 638.710938 614.660156 638.351562 620.289062 637.058594 C 624.257812 636.148438 628.058594 634.515625 631.472656 632.296875 C 632.507812 631.628906 633.511719 630.902344 634.464844 630.113281 C 634.609375 629.988281 635.464844 629.433594 635.472656 629.21875 C 635.472656 629.210938 636.097656 614.507812 636.097656 614.507812 L 593.054688 613.859375 C 585.046875 613.742188 577.457031 617.152344 572.234375 623.21875 L 558.753906 638.875 C 556.507812 641.484375 557.597656 645.640625 560.847656 646.875 Z M 560.847656 646.875 " fill-opacity="1" fill-rule="nonzero"/><path fill="#000000" d="M 665.53125 609.441406 C 665.441406 608.96875 665.757812 608.515625 666.230469 608.433594 L 742.734375 594.476562 L 719.433594 545.128906 C 719.226562 544.695312 719.414062 544.175781 719.847656 543.96875 C 720.289062 543.769531 720.804688 543.953125 721.007812 544.386719 L 744.792969 594.757812 C 744.910156 595.003906 744.902344 595.285156 744.78125 595.527344 C 744.65625 595.769531 744.429688 595.933594 744.164062 595.984375 L 666.542969 610.144531 C 666.492188 610.15625 666.4375 610.160156 666.386719 610.160156 C 665.972656 610.15625 665.605469 609.863281 665.53125 609.441406 Z M 665.53125 609.441406 " fill-opacity="1" fill-rule="nonzero"/><path fill="#000000" d="M 413.363281 499.480469 L 604.84375 499.480469 L 649.945312 640.027344 L 458.675781 640.027344 Z M 413.363281 499.480469 " fill-opacity="1" fill-rule="nonzero"/><path fill="#000000" d="M 458.675781 636.628906 L 712.03125 636.628906 L 712.03125 654.570312 L 458.675781 654.570312 Z M 458.675781 636.628906 " fill-opacity="1" fill-rule="nonzero"/><path fill="#ffffff" d="M 534.894531 586.175781 C 534.894531 586.996094 534.816406 587.8125 534.65625 588.617188 C 534.496094 589.425781 534.257812 590.207031 533.941406 590.96875 C 533.628906 591.726562 533.242188 592.449219 532.785156 593.132812 C 532.328125 593.816406 531.808594 594.449219 531.226562 595.03125 C 530.648438 595.613281 530.015625 596.132812 529.328125 596.589844 C 528.644531 597.046875 527.925781 597.433594 527.164062 597.746094 C 526.40625 598.0625 525.621094 598.300781 524.816406 598.460938 C 524.007812 598.621094 523.195312 598.699219 522.371094 598.699219 C 521.550781 598.699219 520.734375 598.621094 519.929688 598.460938 C 519.121094 598.300781 518.339844 598.0625 517.578125 597.746094 C 516.820312 597.433594 516.097656 597.046875 515.414062 596.589844 C 514.730469 596.132812 514.097656 595.613281 513.515625 595.03125 C 512.933594 594.449219 512.414062 593.816406 511.957031 593.132812 C 511.5 592.449219 511.113281 591.726562 510.800781 590.96875 C 510.484375 590.207031 510.246094 589.425781 510.085938 588.617188 C 509.925781 587.8125 509.847656 586.996094 509.847656 586.175781 C 509.847656 585.351562 509.925781 584.539062 510.085938 583.730469 C 510.246094 582.925781 510.484375 582.140625 510.800781 581.382812 C 511.113281 580.621094 511.5 579.902344 511.957031 579.21875 C 512.414062 578.535156 512.933594 577.902344 513.515625 577.320312 C 514.097656 576.738281 514.730469 576.21875 515.414062 575.761719 C 516.097656 575.304688 516.820312 574.917969 517.578125 574.605469 C 518.339844 574.289062 519.121094 574.050781 519.929688 573.890625 C 520.734375 573.730469 521.550781 573.652344 522.371094 573.652344 C 523.195312 573.652344 524.007812 573.730469 524.816406 573.890625 C 525.621094 574.050781 526.40625 574.289062 527.164062 574.605469 C 527.925781 574.917969 528.644531 575.304688 529.328125 575.761719 C 530.015625 576.21875 530.648438 576.738281 531.226562 577.320312 C 531.808594 577.902344 532.328125 578.535156 532.785156 579.21875 C 533.242188 579.902344 533.628906 580.621094 533.941406 581.382812 C 534.257812 582.140625 534.496094 582.925781 534.65625 583.730469 C 534.816406 584.539062 534.894531 585.351562 534.894531 586.175781 Z M 534.894531 586.175781 " fill-opacity="1" fill-rule="nonzero"/><path fill="#ffd497" d="M 154.410156 355.511719 C 154.410156 355.511719 59.0625 482.777344 59.0625 482.777344 C 37.890625 512.15625 -8.929688 480.574219 10.65625 449.925781 L 66.65625 366.207031 Z M 154.410156 355.511719 " fill-opacity="1" fill-rule="nonzero"/><path fill="#000000" d="M 122.980469 437.398438 L 37.621094 381.214844 C 58.902344 348.296875 112.777344 257.082031 148.136719 268.714844 C 244.25 306.449219 138.808594 411.402344 122.980469 437.398438 Z M 122.980469 437.398438 " fill-opacity="1" fill-rule="nonzero"/><path fill="#000000" d="M 310.453125 371.347656 L 352.445312 361.664062 C 349.984375 271.695312 288.808594 267.699219 288.808594 267.699219 Z M 310.453125 371.347656 " fill-opacity="1" fill-rule="nonzero"/><path fill="#000000" d="M 116.84375 326.007812 L 141.132812 502.203125 L 292.074219 502.203125 C 305.710938 442.695312 354.914062 285.800781 296.808594 269.320312 C 245.472656 254.757812 207.644531 254.75 139.269531 267.320312 C 117.878906 268.628906 123.113281 311.847656 116.84375 326.007812 Z M 116.84375 326.007812 " fill-opacity="1" fill-rule="nonzero"/><path fill="#000000" d="M 135.90625 427.789062 L 119.628906 358.984375 C 119.539062 358.589844 119.78125 358.191406 120.175781 358.097656 C 120.578125 358.003906 120.96875 358.25 121.0625 358.644531 L 137.339844 427.449219 C 137.429688 427.847656 137.1875 428.242188 136.792969 428.335938 C 136.738281 428.351562 136.679688 428.355469 136.625 428.355469 C 136.292969 428.355469 135.992188 428.128906 135.90625 427.789062 Z M 135.90625 427.789062 " fill-opacity="1" fill-rule="nonzero"/><path fill="#000000" d="M 312 404.808594 C 311.601562 404.75 311.324219 404.375 311.378906 403.976562 L 321.179688 335.167969 C 321.238281 334.769531 321.582031 334.484375 322.015625 334.546875 C 322.414062 334.605469 322.695312 334.980469 322.636719 335.378906 L 312.835938 404.1875 C 312.78125 404.554688 312.46875 404.820312 312.105469 404.820312 C 312.074219 404.820312 312.039062 404.816406 312 404.808594 Z M 312 404.808594 " fill-opacity="1" fill-rule="nonzero"/><path fill="#ffd497" d="M 210.21875 434.53125 L 264.667969 436.390625 L 288.804688 385.054688 C 226.542969 360.191406 202.789062 402.253906 202.789062 402.253906 Z M 210.21875 434.53125 " fill-opacity="1" fill-rule="nonzero"/><path fill="#ffd497" d="M 212.898438 433.574219 L 45.28125 493.328125 L 35.5 430.941406 L 206.585938 401.601562 Z M 212.898438 433.574219 " fill-opacity="1" fill-rule="nonzero"/><path fill="#000000" d="M 54.152344 427.746094 C 54.085938 427.34375 54.355469 426.964844 54.753906 426.894531 L 95.640625 419.882812 C 96.070312 419.820312 96.425781 420.085938 96.488281 420.484375 C 96.554688 420.882812 96.285156 421.261719 95.886719 421.332031 L 55 428.34375 C 54.957031 428.351562 54.917969 428.355469 54.875 428.355469 C 54.523438 428.355469 54.210938 428.105469 54.152344 427.746094 Z M 54.152344 427.746094 " fill-opacity="1" fill-rule="nonzero"/><path fill="#ffffff" d="M 446.378906 358 C 395.824219 340.859375 272.207031 361.664062 272.207031 361.664062 L 203.324219 523.421875 L 214.664062 536.023438 Z M 446.378906 358 " fill-opacity="1" fill-rule="nonzero"/><path fill="#000000" d="M 373.089844 499.082031 C 362.703125 519.230469 334.179688 519.363281 334.179688 519.363281 L 413.191406 362.523438 L 446.375 358 Z M 373.089844 499.082031 " fill-opacity="1" fill-rule="nonzero"/><path fill="#000000" d="M 339.5 518.625 L 214.660156 536.023438 L 281.867188 373.882812 L 419.503906 361.664062 Z M 339.5 518.625 " fill-opacity="1" fill-rule="nonzero"/><g mask="url(#9491044f7d)"><g transform="matrix(1, 0, 0, 1, 213, 360)"><g clip-path="url(#b9e44738e6)"><g clip-path="url(#61b959c49b)"><path fill="#000000" d="M 126.5 158.625 L 1.660156 176.023438 L 68.867188 13.882812 L 206.503906 1.664062 Z M 126.5 158.625 " fill-opacity="1" fill-rule="nonzero"/></g></g></g></g><path fill="#ffffff" d="M 383.539062 354.148438 L 414.316406 283.464844 L 430.179688 283.464844 L 446.375 358 Z M 383.539062 354.148438 " fill-opacity="1" fill-rule="nonzero"/><path fill="#ffd497" d="M 391.832031 462.710938 L 357.839844 437.859375 C 355.839844 436.398438 355.210938 433.6875 356.371094 431.496094 C 357.625 429.128906 360.523438 428.171875 362.9375 429.324219 L 388.144531 441.355469 L 358.597656 419.839844 C 356.761719 418.503906 356.15625 416.039062 357.167969 414.003906 C 358.324219 411.667969 361.171875 410.738281 363.488281 411.9375 L 392.503906 426.976562 L 360.207031 401.691406 C 357.992188 399.957031 357.410156 396.839844 358.859375 394.421875 C 360.492188 391.695312 364.070312 390.875 366.726562 392.625 L 401.574219 415.558594 L 378.515625 393.40625 C 376.828125 391.785156 376.824219 389.085938 378.507812 387.457031 C 379.929688 386.082031 382.136719 385.910156 383.757812 387.046875 L 422.605469 414.382812 C 422.605469 414.382812 437.636719 426.941406 422.125 450.605469 C 406.613281 474.269531 388.300781 469.796875 388.300781 469.796875 Z M 391.832031 462.710938 " fill-opacity="1" fill-rule="nonzero"/><path fill="#000000" d="M 291.699219 178.230469 C 326.902344 144.386719 288.898438 130.515625 288.898438 130.515625 Z M 291.699219 178.230469 " fill-opacity="1" fill-rule="nonzero"/><path fill="#ffd497" d="M 221.5 186.039062 L 199.835938 271.171875 L 250.484375 272.820312 L 258.660156 226.011719 Z M 221.5 186.039062 " fill-opacity="1" fill-rule="nonzero"/><path fill="#000000" d="M 257.796875 231.242188 L 218.519531 211.074219 C 217.359375 242.804688 253.660156 254.558594 253.660156 254.558594 Z M 257.796875 231.242188 " fill-opacity="1" fill-rule="nonzero"/><path fill="#ffd497" d="M 208.484375 182.722656 C 206.898438 228.042969 233.238281 233.953125 233.238281 233.953125 C 256.253906 244.421875 273.933594 236.285156 284.433594 219.195312 C 292.683594 205.761719 294.617188 172.59375 295.066406 159.011719 C 295.203125 154.945312 291.558594 142.890625 289.242188 139.550781 C 265.613281 105.472656 210.839844 115.171875 208.484375 182.722656 Z M 208.484375 182.722656 " fill-opacity="1" fill-rule="nonzero"/><path fill="#000000" d="M 281.738281 190.851562 C 283.542969 190.8125 285.039062 192.246094 285.082031 194.050781 C 285.121094 195.855469 283.6875 197.355469 281.882812 197.394531 C 280.078125 197.433594 278.578125 196.003906 278.539062 194.195312 C 278.5 192.390625 279.929688 190.898438 281.738281 190.851562 Z M 281.738281 190.851562 " fill-opacity="1" fill-rule="nonzero"/><path fill="#000000" d="M 253.402344 184.757812 C 255.207031 184.71875 256.707031 186.148438 256.746094 187.953125 C 256.785156 189.757812 255.355469 191.257812 253.550781 191.296875 C 251.746094 191.339844 250.246094 189.90625 250.207031 188.101562 C 250.164062 186.296875 251.59375 184.800781 253.402344 184.757812 Z M 253.402344 184.757812 " fill-opacity="1" fill-rule="nonzero"/><path fill="#000000" d="M 265.4375 206.925781 C 265.425781 206.40625 265.835938 205.96875 266.359375 205.957031 L 270.785156 205.828125 L 269.945312 195.246094 C 269.90625 194.722656 270.296875 194.265625 270.816406 194.226562 C 271.328125 194.148438 271.792969 194.578125 271.835938 195.09375 L 272.75 206.671875 C 272.769531 206.929688 272.683594 207.183594 272.511719 207.378906 C 272.339844 207.574219 272.09375 207.6875 271.832031 207.691406 L 266.40625 207.847656 C 266.398438 207.847656 266.390625 207.847656 266.382812 207.847656 C 265.867188 207.847656 265.449219 207.4375 265.4375 206.925781 Z M 265.4375 206.925781 " fill-opacity="1" fill-rule="nonzero"/><path fill="#000000" d="M 259.601562 165.332031 C 250.253906 163.210938 244.386719 165.933594 240.652344 167.816406 C 238.832031 168.734375 237.695312 170.582031 238.25 172.546875 C 238.832031 174.597656 240.933594 175.75 243.003906 175.25 C 248.570312 173.910156 254.457031 173.976562 258.476562 174.285156 C 261.140625 174.484375 263.386719 172.355469 263.324219 169.683594 C 263.273438 167.527344 261.699219 165.808594 259.601562 165.332031 Z M 259.601562 165.332031 " fill-opacity="1" fill-rule="nonzero"/><path fill="#000000" d="M 280.84375 170.140625 C 287.121094 170.984375 289.945312 175.328125 291.703125 178.230469 C 292.558594 179.648438 292.742188 181.726562 291.863281 183.402344 C 290.945312 185.15625 289.34375 185.601562 288.222656 184.5 C 285.203125 181.546875 281.597656 179.824219 279.0625 178.890625 C 277.382812 178.269531 276.605469 175.582031 277.375 173.089844 C 277.996094 171.089844 279.433594 169.949219 280.84375 170.140625 Z M 280.84375 170.140625 " fill-opacity="1" fill-rule="nonzero"/><path fill="#000000" d="M 196.921875 152.25 C 199.15625 140.171875 206.144531 129.3125 217.859375 122.605469 C 232.867188 114.007812 252.367188 111.964844 269.800781 114.027344 C 284.394531 115.753906 296.734375 122.988281 300.367188 136.1875 C 305.785156 155.871094 288.539062 162.054688 279.855469 161.601562 C 275.503906 161.375 271.382812 159.96875 267.632812 157.992188 C 254.140625 150.878906 234.417969 147.667969 234.417969 147.667969 C 231.652344 178.644531 208.21875 193.390625 208.21875 193.390625 C 208.21875 193.390625 194.230469 166.808594 196.921875 152.25 Z M 196.921875 152.25 " fill-opacity="1" fill-rule="nonzero"/><path fill="#ffd497" d="M 206.273438 165.15625 C 215.082031 164.625 222.648438 171.335938 223.175781 180.144531 C 223.707031 188.953125 216.996094 196.515625 208.1875 197.046875 C 199.382812 197.574219 191.816406 190.863281 191.285156 182.058594 C 190.757812 173.25 197.46875 165.683594 206.273438 165.15625 Z M 206.273438 165.15625 " fill-opacity="1" fill-rule="nonzero"/><path fill="#000000" d="M 212.574219 187.59375 C 212.5625 183.765625 211.488281 180.804688 209.378906 178.789062 C 206.121094 175.671875 201.371094 175.835938 201.351562 175.832031 C 200.890625 175.863281 200.386719 175.453125 200.363281 174.925781 C 200.339844 174.40625 200.746094 173.964844 201.265625 173.941406 C 201.484375 173.921875 206.824219 173.742188 210.675781 177.410156 C 213.179688 179.796875 214.453125 183.21875 214.464844 187.59375 C 214.464844 188.117188 214.039062 188.539062 213.515625 188.542969 C 213 188.539062 212.578125 188.121094 212.574219 187.59375 Z M 212.574219 187.59375 " fill-opacity="1" fill-rule="nonzero"/><path fill="#ffd497" d="M 275.921875 267.429688 C 275.921875 267.429688 262.972656 298.007812 229.246094 296.488281 C 195.519531 294.972656 182.53125 260.625 182.53125 260.625 C 234.550781 252.089844 275.921875 267.429688 275.921875 267.429688 Z M 275.921875 267.429688 " fill-opacity="1" fill-rule="nonzero"/><path fill="#000000" d="M 249.386719 214.839844 C 249.121094 214.390625 249.269531 213.8125 249.722656 213.542969 C 250.175781 213.28125 250.753906 213.429688 251.015625 213.882812 C 255.925781 222.257812 268.714844 218.984375 268.847656 218.953125 C 269.328125 218.816406 269.867188 219.121094 270.003906 219.625 C 270.136719 220.128906 269.839844 220.648438 269.332031 220.78125 C 269.082031 220.851562 266.402344 221.539062 262.980469 221.539062 C 258.445312 221.539062 252.597656 220.328125 249.386719 214.839844 Z M 249.386719 214.839844 " fill-opacity="1" fill-rule="nonzero"/><path fill="#ffffff" d="M 203.320312 257.46875 L 230.535156 286.34375 L 252.761719 259.769531 L 278.851562 263.445312 L 263.328125 322.691406 L 230.8125 299.621094 L 196.578125 316.5625 L 177.484375 261.246094 Z M 203.320312 257.46875 " fill-opacity="1" fill-rule="nonzero"/><path fill="#000000" d="M 230.8125 380.917969 C 230.398438 380.917969 230.0625 380.582031 230.0625 380.167969 L 230.0625 301.300781 C 230.0625 300.886719 230.398438 300.550781 230.8125 300.550781 C 231.226562 300.550781 231.5625 300.886719 231.5625 301.300781 L 231.5625 380.167969 C 231.5625 380.582031 231.226562 380.917969 230.8125 380.917969 Z M 230.8125 380.917969 " fill-opacity="1" fill-rule="nonzero"/><g mask="url(#e83de735b4)"><g transform="matrix(1, 0, 0, 1, 608, 392)"><g clip-path="url(#09dde68a9c)"><path fill="#000000" d="M 3.382812 6.757812 C 4.328125 8.125 5.886719 8.710938 7.382812 9.035156 C 10.683594 9.761719 14.285156 9.523438 17.144531 7.5 C 17.792969 7.042969 18.445312 6.40625 18.550781 5.539062 C 18.652344 4.695312 18.179688 3.867188 17.546875 3.417969 C 16.917969 2.964844 16.160156 2.820312 15.417969 2.738281 C 12.347656 2.402344 9.269531 2.96875 6.195312 2.78125 C 5.171875 2.714844 3.800781 2.011719 3.070312 2.964844 C 2.328125 3.9375 2.765625 5.871094 3.382812 6.757812 Z M 3.382812 6.757812 " fill-opacity="1" fill-rule="nonzero"/></g></g></g></svg>