<svg width="14" height="14" viewBox="0 0 14 14" fill="none" xmlns="http://www.w3.org/2000/svg">
<path d="M13.1875 1.375V12.625C13.1875 12.9234 13.069 13.2095 12.858 13.4205C12.647 13.6315 12.3609 13.75 12.0625 13.75H9.25C8.95163 13.75 8.66548 13.6315 8.4545 13.4205C8.24353 13.2095 8.125 12.9234 8.125 12.625V1.375C8.125 1.07663 8.24353 0.790483 8.4545 0.579505C8.66548 0.368526 8.95163 0.25 9.25 0.25H12.0625C12.3609 0.25 12.647 0.368526 12.858 0.579505C13.069 0.790483 13.1875 1.07663 13.1875 1.375ZM4.75 0.25H1.9375C1.63913 0.25 1.35298 0.368526 1.142 0.579505C0.931026 0.790483 0.8125 1.07663 0.8125 1.375V12.625C0.8125 12.9234 0.931026 13.2095 1.142 13.4205C1.35298 13.6315 1.63913 13.75 1.9375 13.75H4.75C5.04837 13.75 5.33452 13.6315 5.5455 13.4205C5.75647 13.2095 5.875 12.9234 5.875 12.625V1.375C5.875 1.07663 5.75647 0.790483 5.5455 0.579505C5.33452 0.368526 5.04837 0.25 4.75 0.25Z" fill="#3F3F3F"/>
</svg>
