<svg width="24" height="24" viewBox="0 0 24 24" fill="none" xmlns="http://www.w3.org/2000/svg">
<path d="M5.14302 14C4.39267 12.7712 3.99707 11.3588 4.00002 9.919C4.00002 5.545 7.58202 2 12 2C16.418 2 20 5.545 20 9.919C20.003 11.3588 19.6074 12.7712 18.857 14M15 19L14.87 19.647C14.73 20.354 14.659 20.707 14.5 20.987C14.255 21.4186 13.8583 21.7436 13.387 21.899C13.082 22 12.72 22 12 22C11.28 22 10.918 22 10.613 21.9C10.1416 21.7444 9.74483 21.4189 9.50002 20.987C9.34102 20.707 9.27002 20.354 9.13002 19.647L9.00002 19M12 16V11M7.38302 17.098C7.29102 16.822 7.24502 16.683 7.25002 16.571C7.25567 16.4552 7.29476 16.3435 7.36256 16.2494C7.43035 16.1554 7.52394 16.083 7.63202 16.041C7.73602 16 7.88202 16 8.17202 16H15.828C16.119 16 16.264 16 16.368 16.04C16.4762 16.0821 16.5699 16.1546 16.6377 16.2489C16.7055 16.3431 16.7445 16.455 16.75 16.571C16.755 16.683 16.709 16.821 16.617 17.098C16.447 17.609 16.362 17.865 16.231 18.072C15.957 18.5046 15.5275 18.8156 15.031 18.941C14.793 19 14.525 19 13.988 19H10.012C9.47502 19 9.20602 19 8.96902 18.94C8.47268 18.8149 8.0432 18.5042 7.76902 18.072C7.63802 17.865 7.55302 17.609 7.38302 17.098Z" stroke="black" stroke-width="1.5" stroke-linecap="round" stroke-linejoin="round"/>
</svg>
