<svg width="24" height="24" viewBox="0 0 24 24" fill="none" xmlns="http://www.w3.org/2000/svg">
<path d="M6.51398 2C5.20998 2.129 4.33198 2.419 3.67598 3.076C2.50098 4.253 2.50098 6.148 2.50098 9.939V13.959C2.50098 17.749 2.50098 19.645 3.67598 20.823C4.85098 22.001 6.74298 22 10.526 22H12.533C16.316 22 18.208 22 19.383 20.823C20.45 19.753 20.549 18.106 20.558 14.977" stroke="black" stroke-width="1.5" stroke-linecap="round" stroke-linejoin="round"/>
<path d="M10.5262 6.99992L11.5292 10.4999C12.0892 11.6099 12.7922 11.8999 14.5392 11.9999C15.9282 11.9659 16.7342 11.8019 17.4222 11.2039C17.8912 10.7959 18.1032 10.1809 18.2062 9.56892L18.5502 7.49992M21.0582 5.49992V10.4999V5.49992ZM8.6012 4.93292C10.1882 3.61592 11.6022 2.90892 14.5352 2.13092C14.8661 2.04356 15.2142 2.04529 15.5442 2.13592C18.1402 2.84992 19.5422 3.48392 21.4202 4.89392C21.5002 4.95392 21.5242 5.06592 21.4682 5.14892C20.8552 6.05092 19.4862 6.78192 16.1282 8.08392C15.4288 8.35305 14.1219 8.36076 13.4255 8.08392C9.8495 6.66392 8.7372 5.89192 8.5372 5.10292C8.5307 5.07143 8.53326 5.03875 8.54459 5.00866C8.55592 4.97857 8.57555 4.95231 8.6012 4.93292Z" fill="black"/>
<path d="M21.0582 5.49992V10.4999M10.5262 6.99992L11.5292 10.4999C12.0892 11.6099 12.7922 11.8999 14.5392 11.9999C15.9282 11.9659 16.7342 11.8019 17.4222 11.2039C17.8912 10.7959 18.1032 10.1809 18.2062 9.56892L18.5502 7.49992L10.5262 6.99992ZM8.6012 4.93292C10.1882 3.61592 11.6022 2.90892 14.5352 2.13092C14.8661 2.04356 15.2142 2.04529 15.5442 2.13592C18.1402 2.84992 19.5422 3.48392 21.4202 4.89392C21.5002 4.95392 21.5242 5.06592 21.4682 5.14892C20.8552 6.05092 19.4862 6.78192 16.1282 8.08392C15.4288 8.35305 14.1219 8.36076 13.4255 8.08392C9.8495 6.66392 8.7372 5.89192 8.5372 5.10292C8.5307 5.07143 8.53326 5.03875 8.54459 5.00866C8.55592 4.97857 8.57555 4.95231 8.6012 4.93292Z" stroke="black" stroke-width="1.5" stroke-linecap="round" stroke-linejoin="round"/>
</svg>
