<svg width="12" height="7" viewBox="0 0 12 7" fill="none" xmlns="http://www.w3.org/2000/svg">
<path d="M10.2876 0.499754L6.40758 4.37975L2.52758 0.499754C2.435 0.407172 2.32509 0.333732 2.20413 0.283628C2.08316 0.233523 1.95351 0.207733 1.82258 0.207733C1.69165 0.207733 1.562 0.233523 1.44104 0.283628C1.32007 0.333732 1.21016 0.407172 1.11758 0.499754C1.025 0.592336 0.95156 0.702247 0.901455 0.823211C0.85135 0.944175 0.825562 1.07382 0.825562 1.20475C0.825562 1.33568 0.85135 1.46533 0.901455 1.5863C0.95156 1.70726 1.025 1.81717 1.11758 1.90975L5.70758 6.49975C6.09758 6.88975 6.72758 6.88975 7.11758 6.49975L11.7076 1.90975C11.8003 1.81724 11.8738 1.70735 11.924 1.58638C11.9742 1.4654 12 1.33572 12 1.20475C12 1.07379 11.9742 0.944103 11.924 0.82313C11.8738 0.702156 11.8003 0.592268 11.7076 0.499754C11.3176 0.119754 10.6776 0.109754 10.2876 0.499754Z" fill="#484848"/>
</svg>
