<svg width="24" height="24" viewBox="0 0 24 24" fill="none" xmlns="http://www.w3.org/2000/svg">
<path d="M7.38302 16.2494C6.63267 15.0207 3.99707 11.3588 4.00002 9.919C4.00002 5.545 7.58202 2 12 2C16.418 2 20 5.545 20 9.919C20.003 11.3588 17.3881 15.0201 16.6377 16.2489M16.6377 16.2489C16.5699 16.1546 16.4762 16.0821 16.368 16.04C16.264 16 16.119 16 15.828 16H8.17202C7.88202 16 7.73602 16 7.63202 16.041C7.52394 16.083 7.43035 16.1554 7.36256 16.2494C7.29476 16.3435 7.25567 16.4552 7.25002 16.571C7.24502 16.683 7.29102 16.822 7.38302 17.098C7.55302 17.609 7.63802 17.865 7.76902 18.072C8.0432 18.5042 8.47268 18.8149 8.96902 18.94C9.20602 19 9.47502 19 10.012 19H13.988C14.525 19 14.793 19 15.031 18.941C15.5275 18.8156 15.957 18.5046 16.231 18.072C16.362 17.865 16.447 17.609 16.617 17.098C16.709 16.821 16.755 16.683 16.75 16.571C16.7445 16.455 16.7055 16.3431 16.6377 16.2489ZM15 19L14.87 19.647C14.73 20.354 14.659 20.707 14.5 20.987C14.255 21.4186 13.8583 21.7436 13.387 21.899C13.082 22 12.72 22 12 22C11.28 22 10.918 22 10.613 21.9C10.1416 21.7444 9.74483 21.4189 9.50002 20.987C9.34102 20.707 9.27002 20.354 9.13002 19.647L9.00002 19M12 16V11" stroke="black" stroke-width="1.5" stroke-linecap="round" stroke-linejoin="round"/>
<path d="M16.5 15H12H7.5L4.5 9C6.1 5 7.16667 4 7.5 4L13 2.5L17.5 5L19.5 10L16.5 15Z" fill="black"/>
<path d="M13 2.5L17.5 5M13 2.5L8.22148 6.15416L4.5 9M13 2.5L7.5 4C7.16667 4 6.1 5 4.5 9M4.5 9L7.5 15H12H16.5L19.5 10L17.5 5M17.5 5C15 5.66667 9.7 6.7 8.5 5.5" stroke="black"/>
</svg>
