<svg width="268" height="187" viewBox="0 0 268 187" fill="none" xmlns="http://www.w3.org/2000/svg">
<path d="M6.50006 160L11.876 149.781L0.337927 150.235L6.50006 160ZM7.39635 156.816C7.38078 156.127 7.37002 155.444 7.36404 154.767L5.36412 154.785C5.37018 155.471 5.38108 156.163 5.39686 156.861L7.39635 156.816ZM7.36035 152.755C7.36386 152.091 7.37208 151.432 7.38498 150.78L5.38537 150.74C5.37228 151.402 5.36393 152.071 5.36038 152.745L7.36035 152.755ZM7.43761 148.84C7.45979 148.199 7.48659 147.565 7.51795 146.936L5.52043 146.837C5.48856 147.475 5.46134 148.12 5.43881 148.771L7.43761 148.84ZM7.63813 144.88C7.68471 144.187 7.737 143.501 7.79494 142.823L5.80219 142.653C5.74321 143.343 5.69 144.041 5.64263 144.746L7.63813 144.88ZM7.98561 140.81C8.05476 140.147 8.12948 139.491 8.2097 138.842L6.22481 138.596C6.14301 139.258 6.06684 139.927 5.99638 140.603L7.98561 140.81ZM8.46678 136.917C8.55791 136.283 8.65448 135.656 8.75638 135.036L6.78288 134.712C6.67875 135.345 6.58014 135.985 6.48711 136.633L8.46678 136.917ZM9.11352 133.009C9.24098 132.331 9.37506 131.663 9.51567 131.003L7.55962 130.586C7.41562 131.262 7.27839 131.946 7.14801 132.639L9.11352 133.009ZM9.95692 129.051C10.1105 128.409 10.2704 127.776 10.4367 127.152L8.50404 126.637C8.33335 127.278 8.16924 127.928 8.01181 128.586L9.95692 129.051ZM10.9542 125.306C11.1441 124.661 11.3409 124.027 11.5446 123.402L9.64306 122.782C9.43338 123.425 9.23091 124.078 9.03577 124.74L10.9542 125.306ZM12.2063 121.472C12.4343 120.839 12.6696 120.217 12.9122 119.605L11.053 118.868C10.8026 119.5 10.5597 120.142 10.3247 120.794L12.2063 121.472ZM13.6615 117.801C13.9184 117.209 14.1824 116.628 14.4534 116.057L12.6465 115.2C12.366 115.791 12.0928 116.392 11.8272 117.004L13.6615 117.801ZM15.3491 114.255C15.6612 113.655 15.9814 113.067 16.3095 112.49L14.5714 111.501C14.2306 112.099 13.8983 112.71 13.5747 113.332L15.3491 114.255ZM17.3176 110.796C17.6615 110.243 18.0131 109.701 18.3723 109.171L16.7166 108.049C16.3425 108.601 15.9766 109.165 15.6191 109.74L17.3176 110.796ZM19.5039 107.572C19.9035 107.032 20.3116 106.504 20.7279 105.989L19.1722 104.732C18.7378 105.269 18.3122 105.82 17.8956 106.383L19.5039 107.572ZM22.0014 104.48C22.434 103.99 22.8747 103.512 23.3232 103.047L21.8829 101.659C21.4141 102.146 20.9536 102.645 20.5018 103.157L22.0014 104.48ZM24.709 101.67C25.1905 101.213 25.6803 100.768 26.1782 100.336L24.8676 98.8257C24.347 99.2773 23.8349 99.7422 23.3315 100.22L24.709 101.67ZM27.6957 99.0788C28.2095 98.6721 28.7311 98.2779 29.2605 97.896L28.0903 96.2741C27.537 96.6733 26.9916 97.0854 26.4544 97.5106L27.6957 99.0788ZM30.8767 96.7835C31.426 96.423 31.983 96.0747 32.5473 95.7386L31.5239 94.0202C30.9347 94.3711 30.3531 94.7348 29.7792 95.1115L30.8767 96.7835ZM34.2624 94.7663C34.8414 94.4542 35.4275 94.1541 36.0207 93.8657L35.1462 92.067C34.5282 92.3675 33.9172 92.6803 33.3134 93.0058L34.2624 94.7663ZM37.8096 93.0405C38.4083 92.7789 39.0135 92.5285 39.6252 92.2893L38.8966 90.4267C38.261 90.6754 37.6316 90.9357 37.0087 91.2079L37.8096 93.0405ZM41.4791 91.6046C42.1033 91.3873 42.7338 91.181 43.3701 90.9854L42.7827 89.0737C42.1232 89.2763 41.4695 89.4902 40.8217 89.7157L41.4791 91.6046ZM45.2701 90.4381C45.8998 90.2686 46.535 90.109 47.1753 89.9593L46.7201 88.0118C46.0584 88.1665 45.4016 88.3315 44.75 88.5069L45.2701 90.4381ZM49.112 89.5397C49.7627 89.4095 50.4183 89.2891 51.0788 89.1783L50.7479 87.2059C50.0673 87.3201 49.3912 87.4442 48.7198 87.5785L49.112 89.5397ZM53.0453 88.8784C53.6912 88.7896 54.3415 88.7095 54.9958 88.638L54.7787 86.6498C54.1062 86.7233 53.4375 86.8056 52.7728 86.897L53.0453 88.8784ZM56.9709 88.4494C57.6332 88.395 58.2995 88.3491 58.9694 88.3116L58.8576 86.3148C58.1707 86.3532 57.4872 86.4003 56.8073 86.4561L56.9709 88.4494ZM60.9768 88.2244C61.6286 88.2042 62.2835 88.1915 62.9416 88.1863L62.9258 86.1864C62.2526 86.1917 61.5821 86.2046 60.9147 86.2254L60.9768 88.2244ZM64.9248 88.1931C65.5889 88.2028 66.2559 88.2198 66.9256 88.2441L66.998 86.2454C66.3141 86.2206 65.6327 86.2032 64.954 86.1933L64.9248 88.1931ZM68.9428 88.3384C69.5991 88.3759 70.2577 88.4202 70.9187 88.471L71.0721 86.4769C70.3983 86.4251 69.7265 86.38 69.057 86.3417L68.9428 88.3384ZM72.8918 88.6417C73.5516 88.705 74.2135 88.7747 74.8773 88.8506L75.1046 86.8636C74.4289 86.7863 73.7549 86.7153 73.0828 86.6508L72.8918 88.6417ZM76.8743 89.0971C77.5372 89.1849 78.2019 89.2787 78.8682 89.3785L79.1644 87.4006C78.4871 87.2991 77.8112 87.2037 77.1368 87.1144L76.8743 89.0971ZM80.8215 89.6873C81.474 89.7958 82.1278 89.9098 82.7829 90.0293L83.1418 88.0618C82.4766 87.9405 81.8125 87.8246 81.1495 87.7144L80.8215 89.6873ZM84.7516 90.4041C85.409 90.5344 86.0674 90.6701 86.7268 90.8109L87.1447 88.8551C86.4758 88.7122 85.8077 88.5745 85.1405 88.4423L84.7516 90.4041ZM88.6817 91.2433C89.3257 91.3905 89.9704 91.5426 90.6158 91.6994L91.0881 89.756C90.434 89.597 89.7804 89.4428 89.1274 89.2936L88.6817 91.2433ZM92.5535 92.1842C93.2 92.3505 93.847 92.5214 94.4943 92.697L95.0177 90.7667C94.3621 90.5889 93.7068 90.4157 93.0518 90.2472L92.5535 92.1842ZM96.4371 93.2372C97.0767 93.4194 97.7165 93.606 98.3563 93.7968L98.9279 91.8803C98.2803 91.6871 97.6326 91.4982 96.9851 91.3138L96.4371 93.2372ZM100.264 94.3782C100.9 94.5761 101.535 94.7782 102.171 94.9842L102.788 93.0817C102.145 92.8733 101.502 92.6689 100.858 92.4686L100.264 94.3782ZM104.077 95.6144C104.712 95.8284 105.347 96.0464 105.982 96.2682L106.642 94.3802C106 94.1559 105.358 93.9355 104.716 93.7191L104.077 95.6144ZM107.867 96.9388C108.493 97.1654 109.119 97.3956 109.744 97.6293L110.445 95.7561C109.813 95.5199 109.181 95.2872 108.548 95.0582L107.867 96.9388ZM111.617 98.3412C112.24 98.582 112.863 98.8262 113.485 99.0739L114.225 97.2158C113.596 96.9656 112.967 96.7188 112.337 96.4755L111.617 98.3412ZM115.348 99.8268C115.966 100.08 116.583 100.337 117.199 100.597L117.976 98.7543C117.354 98.4918 116.731 98.2324 116.107 97.9764L115.348 99.8268ZM119.042 101.385C119.655 101.651 120.267 101.92 120.877 102.192L121.691 100.365C121.075 100.091 120.457 99.8191 119.838 99.5506L119.042 101.385ZM122.705 103.017C123.312 103.295 123.919 103.576 124.523 103.859L125.373 102.048C124.762 101.762 124.15 101.479 123.536 101.198L122.705 103.017ZM126.338 104.721C126.942 105.011 127.544 105.304 128.145 105.6L129.028 103.806C128.422 103.507 127.814 103.211 127.205 102.918L126.338 104.721ZM129.94 106.495C130.537 106.795 131.132 107.099 131.725 107.405L132.642 105.627C132.043 105.319 131.443 105.012 130.841 104.709L129.94 106.495ZM133.496 108.33C134.09 108.643 134.682 108.959 135.272 109.278L136.222 107.518C135.627 107.197 135.03 106.878 134.43 106.561L133.496 108.33ZM137.039 110.243C137.625 110.567 138.21 110.893 138.791 111.221L139.774 109.48C139.187 109.148 138.598 108.819 138.006 108.492L137.039 110.243ZM140.528 112.213C141.104 112.545 141.678 112.88 142.248 113.217L143.264 111.494C142.688 111.154 142.109 110.816 141.527 110.481L140.528 112.213ZM143.982 114.25C144.559 114.598 145.134 114.948 145.705 115.3L146.754 113.597C146.177 113.242 145.597 112.889 145.015 112.538L143.982 114.25ZM147.408 116.361C147.972 116.716 148.533 117.073 149.09 117.431L150.172 115.749C149.609 115.387 149.043 115.027 148.473 114.668L147.408 116.361ZM150.752 118.512C151.32 118.886 151.884 119.261 152.445 119.637L153.56 117.977C152.994 117.597 152.425 117.218 151.851 116.841L150.752 118.512ZM154.113 120.771C154.665 121.151 155.213 121.532 155.757 121.914L156.907 120.278C156.358 119.892 155.804 119.507 155.246 119.123L154.113 120.771ZM157.375 123.064C157.918 123.454 158.455 123.846 158.989 124.238L160.174 122.627C159.635 122.23 159.091 121.835 158.543 121.44L157.375 123.064ZM160.619 125.452C161.158 125.858 161.691 126.265 162.219 126.673L163.441 125.09C162.907 124.677 162.368 124.266 161.823 123.855L160.619 125.452ZM163.787 127.898C164.304 128.308 164.816 128.718 165.322 129.129L166.582 127.576C166.07 127.16 165.552 126.745 165.028 126.33L163.787 127.898ZM166.893 130.421C167.415 130.856 167.93 131.292 168.438 131.727L169.74 130.209C169.224 129.767 168.702 129.326 168.174 128.885L166.893 130.421ZM169.943 133.036C170.438 133.472 170.926 133.909 171.407 134.346L172.752 132.865C172.264 132.422 171.768 131.979 171.266 131.536L169.943 133.036ZM172.888 135.711C173.387 136.179 173.877 136.646 174.359 137.112L175.75 135.676C175.26 135.201 174.762 134.727 174.256 134.252L172.888 135.711ZM175.778 138.512C176.242 138.978 176.698 139.443 177.144 139.908L178.586 138.522C178.131 138.049 177.667 137.574 177.194 137.1L175.778 138.512ZM178.527 141.376C178.99 141.879 179.443 142.38 179.885 142.881L181.384 141.557C180.933 141.045 180.47 140.533 179.997 140.02L178.527 141.376ZM181.176 144.377C181.594 144.875 182.002 145.37 182.397 145.864L183.959 144.614C183.552 144.107 183.134 143.598 182.705 143.089L181.176 144.377ZM183.66 147.489C184.067 148.029 184.46 148.566 184.837 149.1L186.471 147.947C186.081 147.395 185.676 146.841 185.257 146.285L183.66 147.489ZM185.922 150.693C186.297 151.264 186.653 151.83 186.99 152.392L188.705 151.362C188.353 150.776 187.983 150.187 187.594 149.596L185.922 150.693ZM187.979 154.125C188.289 154.697 188.578 155.264 188.846 155.826L190.65 154.964C190.367 154.371 190.063 153.774 189.739 153.174L187.979 154.125ZM189.649 157.646C189.9 158.267 190.123 158.879 190.318 159.482L192.221 158.866C192.01 158.215 191.771 157.558 191.503 156.897L189.649 157.646ZM190.824 161.284C190.98 161.942 191.099 162.588 191.181 163.22L193.165 162.962C193.073 162.258 192.941 161.545 192.771 160.824L190.824 161.284ZM191.318 165.075C191.326 165.719 191.293 166.348 191.216 166.959L193.201 167.207C193.289 166.5 193.327 165.779 193.317 165.048L191.318 165.075ZM190.849 168.776C190.682 169.363 190.469 169.934 190.21 170.488L192.022 171.335C192.327 170.683 192.576 170.012 192.772 169.323L190.849 168.776ZM189.29 172.103C189.112 172.364 188.922 172.622 188.719 172.875L190.281 174.125C190.516 173.831 190.736 173.532 190.944 173.228L189.29 172.103ZM188.719 172.875C188.515 173.131 188.307 173.381 188.094 173.627L189.608 174.935C189.837 174.669 190.061 174.4 190.281 174.125L188.719 172.875ZM186.768 175.051C186.31 175.508 185.835 175.948 185.345 176.37L186.649 177.886C187.176 177.432 187.687 176.96 188.18 176.468L186.768 175.051ZM183.825 177.585C183.304 177.972 182.768 178.341 182.218 178.694L183.296 180.378C183.885 180.001 184.459 179.605 185.018 179.19L183.825 177.585ZM180.547 179.686C179.977 180 179.393 180.297 178.796 180.578L179.648 182.388C180.282 182.089 180.904 181.773 181.512 181.438L180.547 179.686ZM177.011 181.353C176.406 181.595 175.79 181.821 175.163 182.031L175.799 183.927C176.461 183.705 177.113 183.466 177.753 183.211L177.011 181.353ZM173.286 182.605C172.661 182.778 172.025 182.937 171.381 183.082L171.818 185.033C172.494 184.882 173.162 184.715 173.821 184.532L173.286 182.605ZM169.433 183.47C168.795 183.581 168.15 183.679 167.498 183.763L167.755 185.747C168.436 185.659 169.11 185.556 169.777 185.44L169.433 183.47ZM165.519 183.977C164.87 184.034 164.214 184.078 163.553 184.109L163.647 186.107C164.335 186.074 165.017 186.029 165.693 185.97L165.519 183.977ZM161.575 184.165C160.913 184.171 160.246 184.166 159.574 184.148L159.521 186.147C160.217 186.166 160.908 186.171 161.595 186.165L161.575 184.165ZM157.61 184.063C156.952 184.023 156.289 183.972 155.622 183.91L155.437 185.902C156.125 185.966 156.809 186.018 157.49 186.059L157.61 184.063ZM153.643 183.695C152.992 183.614 152.339 183.523 151.683 183.421L151.377 185.397C152.052 185.502 152.725 185.596 153.395 185.68L153.643 183.695ZM149.708 183.085C149.062 182.966 148.413 182.836 147.762 182.697L147.344 184.653C148.012 184.796 148.68 184.929 149.345 185.052L149.708 183.085ZM145.825 182.255C145.178 182.099 144.529 181.933 143.88 181.757L143.358 183.688C144.024 183.868 144.69 184.038 145.354 184.199L145.825 182.255ZM141.973 181.215C141.34 181.026 140.706 180.829 140.072 180.622L139.453 182.524C140.103 182.736 140.753 182.938 141.402 183.132L141.973 181.215ZM138.169 179.977C137.548 179.758 136.927 179.531 136.306 179.295L135.596 181.165C136.232 181.406 136.867 181.639 137.503 181.863L138.169 179.977ZM134.452 178.565C133.834 178.313 133.217 178.054 132.6 177.786L131.803 179.62C132.433 179.894 133.065 180.16 133.697 180.417L134.452 178.565ZM130.788 176.973C130.187 176.695 129.586 176.41 128.988 176.116L128.108 177.912C128.72 178.212 129.334 178.504 129.949 178.789L130.788 176.973ZM127.195 175.213C126.608 174.908 126.023 174.596 125.439 174.277L124.479 176.032C125.076 176.358 125.675 176.677 126.275 176.988L127.195 175.213ZM123.701 173.301C123.123 172.969 122.548 172.629 121.975 172.281L120.938 173.992C121.524 174.347 122.112 174.694 122.702 175.034L123.701 173.301ZM120.281 171.229C119.722 170.873 119.166 170.51 118.612 170.141L117.501 171.804C118.067 172.182 118.636 172.553 119.207 172.916L120.281 171.229ZM116.959 169.01C116.415 168.629 115.874 168.241 115.335 167.846L114.152 169.459C114.702 169.863 115.256 170.259 115.812 170.649L116.959 169.01ZM113.743 166.651C113.215 166.246 112.691 165.834 112.17 165.416L110.918 166.975C111.45 167.402 111.985 167.823 112.525 168.237L113.743 166.651ZM110.624 164.144C110.118 163.718 109.615 163.286 109.116 162.847L107.795 164.348C108.305 164.797 108.819 165.239 109.337 165.675L110.624 164.144ZM107.631 161.511C107.14 161.059 106.654 160.602 106.172 160.137L104.785 161.578C105.278 162.053 105.775 162.521 106.277 162.983L107.631 161.511ZM104.755 158.742C104.287 158.27 103.824 157.793 103.366 157.31L101.915 158.686C102.383 159.181 102.857 159.669 103.335 160.15L104.755 158.742ZM102.006 155.842C101.56 155.351 101.12 154.853 100.685 154.349L99.1716 155.657C99.6169 156.172 100.068 156.682 100.523 157.185L102.006 155.842ZM99.4 152.827C98.977 152.314 98.5593 151.795 98.1471 151.27L96.5743 152.506C96.9963 153.043 97.4238 153.574 97.8568 154.099L99.4 152.827ZM96.9311 149.684C96.5349 149.155 96.1442 148.619 95.7593 148.078L94.1297 149.238C94.5238 149.792 94.9238 150.34 95.3295 150.882L96.9311 149.684ZM94.6222 146.439C94.2491 145.887 93.8819 145.329 93.521 144.766L91.8372 145.845C92.207 146.422 92.583 146.993 92.9652 147.559L94.6222 146.439ZM92.4692 143.081C92.1253 142.514 91.7876 141.943 91.4563 141.366L89.722 142.362C90.0615 142.953 90.4074 143.539 90.7598 144.119L92.4692 143.081ZM90.4819 139.62C90.1659 139.037 89.8563 138.448 89.5535 137.855L87.772 138.764C88.0824 139.372 88.3996 139.975 88.7235 140.573L90.4819 139.62ZM88.6728 136.075C88.386 135.476 88.1059 134.873 87.8327 134.264L86.0082 135.084C86.2882 135.707 86.5753 136.326 86.8694 136.939L88.6728 136.075ZM87.0342 132.424C86.7798 131.817 86.5323 131.205 86.2918 130.589L84.4285 131.315C84.675 131.947 84.9288 132.575 85.1896 133.197L87.0342 132.424ZM85.5921 128.726C85.3661 128.1 85.1472 127.47 84.9357 126.835L83.0382 127.467C83.255 128.118 83.4794 128.764 83.7112 129.406L85.5921 128.726ZM84.3288 124.934C84.1367 124.304 83.9517 123.67 83.7741 123.032L81.8473 123.568C82.0294 124.223 82.219 124.872 82.416 125.518L84.3288 124.934ZM83.2634 121.104C83.1007 120.457 82.9454 119.805 82.7979 119.149L80.8466 119.588C80.9979 120.261 81.157 120.929 81.3238 121.592L83.2634 121.104ZM82.3867 117.21C82.258 116.564 82.1367 115.914 82.023 115.26L80.0526 115.603C80.1691 116.273 80.2933 116.939 80.4252 117.601L82.3867 117.21ZM81.7047 113.285C81.6062 112.623 81.5155 111.957 81.4326 111.286L79.4477 111.532C79.5326 112.218 79.6255 112.901 79.7264 113.58L81.7047 113.285ZM81.2142 109.33C81.1489 108.674 81.0911 108.014 81.0408 107.351L79.0465 107.502C79.098 108.181 79.1572 108.857 79.2241 109.528L81.2142 109.33ZM80.9131 105.349C80.8783 104.682 80.8513 104.01 80.8321 103.335L78.8329 103.392C78.8525 104.083 78.8802 104.77 78.9157 105.453L80.9131 105.349ZM80.7983 101.368C80.7944 100.709 80.798 100.046 80.8091 99.3803L78.8093 99.347C78.798 100.028 78.7944 100.706 78.7984 101.38L80.7983 101.368ZM80.865 97.3722C80.8912 96.7019 80.9249 96.0283 80.9664 95.3514L78.9701 95.229C78.9278 95.9207 78.8933 96.6091 78.8665 97.2942L80.865 97.3722ZM81.1073 93.3928C81.1614 92.7369 81.2228 92.0779 81.2915 91.4158L79.3022 91.2094C79.232 91.8854 79.1694 92.5583 79.1141 93.2283L81.1073 93.3928ZM81.5197 89.4204C81.6031 88.7522 81.694 88.0809 81.7924 87.4067L79.8134 87.1178C79.713 87.8056 79.6202 88.4906 79.5351 89.1725L81.5197 89.4204ZM82.0961 85.461C82.2036 84.8141 82.318 84.1644 82.4394 83.512L80.4731 83.1461C80.3494 83.8111 80.2327 84.4735 80.1231 85.1332L82.0961 85.461ZM82.8247 81.5467C82.9603 80.8889 83.1029 80.2284 83.2527 79.5652L81.3019 79.1245C81.1493 79.8 81.004 80.4729 80.8659 81.1432L82.8247 81.5467ZM83.7126 77.6136C83.8679 76.9806 84.0297 76.3453 84.1981 75.7075L82.2644 75.1968C82.093 75.8459 81.9283 76.4926 81.7702 77.1371L83.7126 77.6136ZM84.7233 73.7872C84.9051 73.1447 85.0935 72.4998 85.2887 71.8525L83.3739 71.275C83.1754 71.9332 82.9837 72.5891 82.7988 73.2428L84.7233 73.7872ZM85.8947 69.9037C86.0947 69.2794 86.3009 68.6531 86.5135 68.0245L84.6189 67.3837C84.4029 68.0224 84.1933 68.659 83.9901 69.2936L85.8947 69.9037ZM87.1603 66.1608C87.3821 65.5375 87.6102 64.9122 87.8445 64.2847L85.9709 63.585C85.733 64.222 85.5014 64.8572 85.2761 65.4903L87.1603 66.1608ZM88.5665 62.3962C88.8135 61.7646 89.0668 61.131 89.3266 60.4954L87.4753 59.7387C87.2117 60.3837 86.9546 61.0267 86.7039 61.6677L88.5665 62.3962ZM90.0871 58.6722C90.343 58.0709 90.6045 57.4679 90.8719 56.8631L89.0426 56.0544C88.7715 56.6677 88.5063 57.2793 88.2468 57.8891L90.0871 58.6722ZM91.6914 55.0432C91.9704 54.4348 92.2553 53.8246 92.5461 53.2127L90.7396 52.3543C90.445 52.9744 90.1563 53.5928 89.8735 54.2095L91.6914 55.0432ZM93.4362 51.3716C93.5875 51.0639 93.7402 50.7558 93.8945 50.4472L92.1057 49.5528C91.9494 49.8653 91.7947 50.1774 91.6414 50.4891L93.4362 51.3716ZM93.8945 50.4472C94.0474 50.1414 94.2011 49.8373 94.3555 49.5349L92.5743 48.6254C92.4173 48.9328 92.2611 49.2419 92.1057 49.5528L93.8945 50.4472ZM95.2906 47.7414C95.6053 47.1505 95.9228 46.5664 96.2432 45.9891L94.4945 45.0186C94.1684 45.6061 93.8453 46.2004 93.5253 46.8015L95.2906 47.7414ZM97.2128 44.2777C97.5434 43.7061 97.877 43.1414 98.2133 42.5836L96.5006 41.5509C96.1579 42.1192 95.8182 42.6943 95.4816 43.2764L97.2128 44.2777ZM99.275 40.8605C99.632 40.2936 99.992 39.7341 100.355 39.1819L98.6838 38.0832C98.3136 38.6464 97.9465 39.2169 97.5826 39.7948L99.275 40.8605ZM101.453 37.5474C101.826 37.0036 102.202 36.4673 102.581 35.9384L100.956 34.7732C100.569 35.3133 100.185 35.8608 99.8038 36.4157L101.453 37.5474ZM103.775 34.3108C104.176 33.7762 104.58 33.2495 104.987 32.7306L103.413 31.496C102.997 32.0264 102.584 32.5647 102.175 33.1108L103.775 34.3108ZM106.217 31.1974C106.638 30.6848 107.062 30.1801 107.489 29.6834L105.973 28.3795C105.536 28.8878 105.102 29.404 104.671 29.9284L106.217 31.1974ZM108.816 28.1771C109.261 27.6834 109.709 27.1979 110.161 26.7207L108.708 25.346C108.246 25.8349 107.786 26.3321 107.33 26.8376L108.816 28.1771ZM111.525 25.3135C111.996 24.8387 112.471 24.3726 112.949 23.9149L111.566 22.4705C111.076 22.9398 110.589 23.4176 110.106 23.9042L111.525 25.3135ZM114.406 22.5544C114.895 22.1095 115.387 21.6732 115.882 21.2453L114.574 19.7322C114.066 20.1712 113.561 20.6189 113.06 21.0752L114.406 22.5544ZM117.388 19.9774C117.906 19.553 118.426 19.1375 118.95 18.7308L117.724 17.1509C117.186 17.5685 116.651 17.9951 116.12 18.4308L117.388 19.9774ZM120.531 17.537C121.061 17.1479 121.595 16.7673 122.131 16.3954L120.99 14.7522C120.44 15.1343 119.892 15.5252 119.348 15.925L120.531 17.537ZM123.782 15.2825C124.338 14.919 124.896 14.5643 125.458 14.2185L124.409 12.5155C123.832 12.8709 123.258 13.2353 122.687 13.6088L123.782 15.2825ZM127.152 13.207C127.725 12.8755 128.3 12.5527 128.879 12.2386L127.925 10.4809C127.33 10.8037 126.739 11.1354 126.15 11.4761L127.152 13.207ZM130.638 11.3148C131.227 11.0156 131.819 10.7252 132.413 10.4433L131.556 8.6361C130.946 8.92572 130.337 9.22418 129.732 9.53161L130.638 11.3148ZM134.21 9.6208C134.817 9.35302 135.426 9.09389 136.038 8.84329L135.28 6.99252C134.652 7.24989 134.026 7.51605 133.403 7.79113L134.21 9.6208ZM137.881 8.11693C138.498 7.88318 139.118 7.65784 139.74 7.44077L139.081 5.55248C138.442 5.77529 137.806 6.00662 137.173 6.24662L137.881 8.11693ZM141.622 6.81119C142.252 6.60961 142.884 6.41625 143.519 6.231L142.958 4.3112C142.307 4.5012 141.659 4.69955 141.013 4.90638L141.622 6.81119ZM145.428 5.69944C146.067 5.5302 146.708 5.36894 147.351 5.21554L146.887 3.27012C146.228 3.42732 145.571 3.5926 144.916 3.76611L145.428 5.69944ZM149.287 4.77876C149.934 4.64094 150.583 4.51085 151.234 4.38837L150.864 2.42287C150.197 2.54826 149.533 2.68147 148.87 2.82263L149.287 4.77876ZM153.187 4.04429C153.84 3.93722 154.494 3.83757 155.149 3.74523L154.87 1.76477C154.2 1.85921 153.531 1.96115 152.863 2.07071L153.187 4.04429ZM157.121 3.49C157.778 3.41235 158.437 3.34185 159.096 3.27837L158.905 1.28756C158.231 1.35241 157.558 1.42445 156.886 1.50382L157.121 3.49ZM161.074 3.10935C161.734 3.05991 162.396 3.01731 163.059 2.98145L162.951 0.984369C162.275 1.02097 161.599 1.06445 160.925 1.11493L161.074 3.10935ZM165.049 2.89403C165.709 2.87166 166.37 2.85579 167.033 2.8463L167.004 0.846507C166.329 0.856175 165.654 0.872356 164.981 0.89518L165.049 2.89403ZM169.023 2.8369C169.687 2.84007 170.352 2.84951 171.018 2.86509L171.065 0.865641C170.387 0.849768 169.709 0.840151 169.032 0.836919L169.023 2.8369ZM173.002 2.92951C173.664 2.95694 174.327 2.9903 174.99 3.02947L175.108 1.03295C174.433 0.9931 173.759 0.959149 173.085 0.931224L173.002 2.92951ZM176.981 3.1643C177.642 3.21469 178.303 3.2707 178.964 3.33223L179.149 1.34083C178.477 1.27829 177.805 1.22133 177.133 1.17009L176.981 3.1643ZM180.944 3.53266C181.605 3.60487 182.265 3.68245 182.926 3.76529L183.175 1.78081C182.504 1.69669 181.833 1.61788 181.162 1.54451L180.944 3.53266ZM184.904 4.02865C185.56 4.12113 186.216 4.21867 186.872 4.32116L187.181 2.34511C186.515 2.24111 185.849 2.14211 185.183 2.04822L184.904 4.02865ZM188.841 4.64336C189.497 4.7556 190.153 4.87268 190.809 4.99447L191.174 3.02809C190.509 2.90459 189.844 2.78586 189.179 2.672L188.841 4.64336ZM192.764 5.37147C193.416 5.50173 194.067 5.63653 194.718 5.77577L195.136 3.82002C194.477 3.67893 193.817 3.54232 193.156 3.41029L192.764 5.37147ZM196.669 6.20667C197.317 6.35421 197.965 6.50604 198.612 6.66206L199.081 4.71778C198.425 4.55979 197.77 4.40602 197.113 4.25658L196.669 6.20667ZM200.548 7.14182C201.193 7.30584 201.838 7.47393 202.481 7.64597L202.998 5.7138C202.346 5.53969 201.694 5.36956 201.041 5.20352L200.548 7.14182ZM204.409 8.17342C205.049 8.3528 205.689 8.536 206.328 8.72292L206.889 6.80338C206.243 6.61432 205.596 6.42899 204.948 6.24751L204.409 8.17342ZM208.242 9.29469C208.879 9.48892 209.515 9.68675 210.15 9.88808L210.754 7.98159C210.112 7.77806 209.469 7.57803 208.825 7.38163L208.242 9.29469ZM212.052 10.5024C212.684 10.7106 213.316 10.9222 213.947 11.137L214.592 9.24392C213.955 9.02681 213.316 8.81299 212.677 8.60257L212.052 10.5024ZM215.834 11.7912C216.463 12.0129 217.09 12.2376 217.716 12.4655L218.4 10.5861C217.768 10.3559 217.134 10.1289 216.499 9.90496L215.834 11.7912ZM219.593 13.1589C220.217 13.3931 220.839 13.6302 221.46 13.8701L222.181 12.0046C221.554 11.7623 220.925 11.5229 220.295 11.2864L219.593 13.1589ZM223.319 14.5991C223.94 14.8461 224.56 15.0958 225.177 15.3482L225.934 13.4967C225.311 13.242 224.685 12.9899 224.058 12.7406L223.319 14.5991ZM227.025 16.1131C227.639 16.3706 228.251 16.6307 228.861 16.8932L229.651 15.0561C229.036 14.7912 228.418 14.5287 227.799 14.2688L227.025 16.1131ZM230.699 17.694C231.31 17.9637 231.92 18.2358 232.527 18.5101L233.35 16.6874C232.738 16.4107 232.123 16.1362 231.506 15.8641L230.699 17.694ZM234.342 19.3396C234.949 19.62 235.553 19.9026 236.155 20.1873L237.01 18.3792C236.403 18.0922 235.793 17.8071 235.181 17.5242L234.342 19.3396ZM237.964 21.0525C238.565 21.3429 239.163 21.6353 239.758 21.9294L240.644 20.1362C240.044 19.8396 239.44 19.5448 238.835 19.2519L237.964 21.0525ZM241.543 22.8204C242.143 23.1231 242.74 23.4274 243.335 23.7334L244.25 21.9553C243.651 21.6468 243.049 21.3399 242.444 21.0348L241.543 22.8204ZM245.108 24.6561C245.696 24.9652 246.282 25.2757 246.864 25.5877L247.808 23.8249C247.222 23.5104 246.632 23.1973 246.038 22.8856L245.108 24.6561ZM248.636 26.5472C249.224 26.8684 249.808 27.1909 250.389 27.5145L251.363 25.7674C250.777 25.4412 250.188 25.1161 249.596 24.7922L248.636 26.5472ZM252.121 28.4886C252.707 28.8214 253.289 29.1553 253.868 29.4901L254.869 27.759C254.286 27.4216 253.699 27.085 253.108 26.7495L252.121 28.4886ZM255.598 30.5011C256.171 30.8389 256.74 31.1775 257.305 31.5167L258.335 29.8022C257.765 29.4602 257.192 29.1188 256.614 28.7783L255.598 30.5011ZM259.026 32.56C259.599 32.9109 260.168 33.2622 260.733 33.6139L261.79 31.9166C261.222 31.562 260.648 31.2078 260.07 30.854L259.026 32.56ZM262.411 34.6699C262.982 35.0321 263.547 35.3945 264.108 35.7569L265.194 34.0775C264.629 33.712 264.058 33.3466 263.483 32.9814L262.411 34.6699ZM265.787 36.8529C266.341 37.2181 266.89 37.5831 267.433 37.9478L268.548 36.2873C268 35.9194 267.446 35.5512 266.887 35.1828L265.787 36.8529ZM269.107 39.0828C269.662 39.4623 270.21 39.8413 270.752 40.2194L271.897 38.5792C271.35 38.1975 270.797 37.8152 270.237 37.4322L269.107 39.0828ZM272.37 41.3586C272.925 41.7541 273.474 42.1485 274.015 42.5415L275.191 40.9232C274.644 40.5263 274.09 40.1282 273.529 39.729L272.37 41.3586ZM275.617 43.7164C275.88 43.9115 276.141 44.1061 276.401 44.3004L277.6 42.6996C277.338 42.5034 277.074 42.3067 276.808 42.1097L275.617 43.7164Z" fill="#373737"/>
</svg>
