<svg width="31" height="25" viewBox="0 0 31 25" fill="none" xmlns="http://www.w3.org/2000/svg">
<path fill-rule="evenodd" clip-rule="evenodd" d="M27.1655 1.09126C27.5361 0.948251 27.9419 0.898927 28.3404 0.948424C28.7389 0.997922 29.1157 1.14443 29.4315 1.37271C29.7473 1.60098 29.9906 1.90267 30.136 2.24638C30.2815 2.59008 30.3237 2.96324 30.2585 3.32701L26.8565 22.2429C26.5265 24.0675 24.3425 25.1139 22.517 24.205C20.99 23.4446 18.722 22.2731 16.682 21.0508C15.662 20.4389 12.5375 18.4795 12.9215 17.0853C13.2515 15.8931 18.5015 11.4134 21.5015 8.75001C22.679 7.70364 22.142 7.10001 20.7515 8.06251C17.2985 10.4523 11.7545 14.0864 9.92147 15.1094C8.30447 16.0114 7.46147 16.1654 6.45347 16.0114C4.61447 15.7309 2.90897 15.2964 1.51697 14.767C-0.364031 14.052 -0.272531 11.6815 1.51547 10.9913L27.1655 1.09126Z" fill="white"/>
</svg>
