<svg width="13" height="12" viewBox="0 0 13 12" fill="none" xmlns="http://www.w3.org/2000/svg">
<g clip-path="url(#clip0_636_1234)">
<path fill-rule="evenodd" clip-rule="evenodd" d="M0.89209 5.74656C0.89209 4.27085 1.47832 2.85557 2.5218 1.81209C3.56529 0.768598 4.98056 0.182373 6.45628 0.182373C7.93199 0.182373 9.34727 0.768598 10.3908 1.81209C11.4342 2.85557 12.0205 4.27085 12.0205 5.74656C12.0205 7.22228 11.4342 8.63755 10.3908 9.68104C9.34727 10.7245 7.93199 11.3108 6.45628 11.3108C4.98056 11.3108 3.56529 10.7245 2.5218 9.68104C1.47832 8.63755 0.89209 7.22228 0.89209 5.74656ZM6.13875 8.12804L9.34224 4.1233L8.76356 3.66036L6.03192 7.07381L4.09706 5.46168L3.62225 6.03145L6.13875 8.12804Z" fill="#3C5865"/>
</g>
<defs>
<clipPath id="clip0_636_1234">
<rect width="11.1284" height="11.1284" fill="white" transform="translate(0.89209 0.182373)"/>
</clipPath>
</defs>
</svg>
