<svg width="45" height="34" viewBox="0 0 45 34" fill="none" xmlns="http://www.w3.org/2000/svg">
<path d="M0 2.9375C0 1.38184 1.25684 0.125 2.8125 0.125H36.5625C38.1182 0.125 39.375 1.38184 39.375 2.9375C39.375 4.49316 38.1182 5.75 36.5625 5.75H2.8125C1.25684 5.75 0 4.49316 0 2.9375ZM5.625 17C5.625 15.4443 6.88184 14.1875 8.4375 14.1875H42.1875C43.7432 14.1875 45 15.4443 45 17C45 18.5557 43.7432 19.8125 42.1875 19.8125H8.4375C6.88184 19.8125 5.625 18.5557 5.625 17ZM39.375 31.0625C39.375 32.6182 38.1182 33.875 36.5625 33.875H2.8125C1.25684 33.875 0 32.6182 0 31.0625C0 29.5068 1.25684 28.25 2.8125 28.25H36.5625C38.1182 28.25 39.375 29.5068 39.375 31.0625Z" fill="black"/>
</svg>
