<svg width="63" height="97" viewBox="0 0 63 97" fill="none" xmlns="http://www.w3.org/2000/svg">
<path d="M22.3098 67.2065C22.973 67.5394 24.0597 67.8923 25.5235 68.126M22.3098 67.2065C19.1014 64.0841 15.6328 60.1787 12.4445 55.8043M22.3098 67.2065L23.0426 69.7812M1.68103 21.0459C3.56603 13.1997 9.55147 6.07163 21.9434 1H25.3326M1.68103 21.0459C0.640467 25.3771 0.84945 29.9273 1.92006 34.4711M1.68103 21.0459C3.89277 20.1803 6.9271 19.2453 10.5851 18.434M61.5534 21.9654C59.2526 10.054 48.5042 3.41856 39.7137 1H36.0497M61.5534 21.9654C58.8579 20.8848 56.1505 19.9845 53.4535 19.2427M61.5534 21.9654C61.6918 22.6819 61.7997 23.4174 61.8747 24.1723M1.92006 34.4711C5.23364 33.3877 9.84121 32.2089 15.1651 31.3072M1.92006 34.4711C3.58708 37.6338 8.56991 41.4288 15.1651 31.3072M1.92006 34.4711C4.07561 41.925 9.74238 51.7276 15.1651 31.3072M1.92006 34.4711C3.67784 41.9313 7.7583 49.3745 12.4445 55.8043M60.5198 36.1262C55.888 33.4783 50.6483 31.8094 45.2096 30.8559M60.5198 36.1262C52.6893 41.8641 47.0503 35.0035 45.2096 30.8559M60.5198 36.1262C49.465 49.3675 45.7069 38.1299 45.2096 30.8559M60.5198 36.1262C61.8542 31.6985 62.2273 27.7218 61.8747 24.1723M60.5198 36.1262C58.7142 42.1174 55.1487 48.9345 49.24 56.6368M15.1651 31.3072C19.9213 30.5016 25.2492 29.9172 30.7369 29.8197M15.1651 31.3072C17.5466 36.4332 23.9952 43.3122 30.7369 29.8197M15.1651 31.3072C17.9741 39.437 25.0211 50.5214 30.7369 29.8197M15.1651 31.3072C17.2465 42.1089 22.2322 64.595 25.5235 68.126M30.7369 29.8197C30.92 29.8164 31.1032 29.8137 31.2865 29.8115M30.7369 29.8197C32.63 37.8489 38.1748 49.297 45.2096 30.8559M31.2865 29.8115C32.9964 34.717 38.1748 41.7936 45.2096 30.8559M31.2865 29.8115L30.7369 68.3463M31.2865 29.8115C35.7562 29.7589 40.3223 30.0339 44.7636 30.7794M45.2096 30.8559C45.0611 30.8299 44.9124 30.8044 44.7636 30.7794M31.8361 1C33.546 5.35022 36.8558 14.5295 36.4161 16.4448M31.8361 1H32.3857M31.8361 1C29.1264 4.61459 23.9521 12.764 24.932 16.4448M31.8361 1H28.7217M36.4161 16.4448C39.5188 16.6379 42.7076 16.9975 45.9424 17.5623M36.4161 16.4448C32.4165 16.1959 28.56 16.2236 24.932 16.4448M32.3857 1C36.8435 3.64309 45.7958 10.6559 45.9424 17.5623M32.3857 1H36.0497M45.9424 17.5623C48.425 17.9957 50.9347 18.55 53.4535 19.2427M36.0497 1C41.7899 3.84388 53.307 11.4739 53.4535 19.2427M24.932 16.4448C22.5465 16.5903 20.2597 16.8195 18.0962 17.1087M28.7217 1C25.4852 3.89244 18.829 11.1636 18.0962 17.1087M28.7217 1H25.3326M18.0962 17.1087C15.3827 17.4715 12.863 17.9288 10.5851 18.434M25.3326 1C20.3557 3.48862 10.4385 10.4595 10.5851 18.434M2.52436 22.701L6.92112 21.0459M9.8523 20.4941L13.8827 19.5746M18.0962 19.2427H23.9586M27.989 18.434H34.9505M40.0801 18.839L45.9424 19.5746M49.0568 20.4941L53.4535 21.5976M55.2855 22.5171L61.8747 24.1723M25.5235 68.126C26.9278 68.3502 28.6792 68.4646 30.7369 68.3463M30.7369 68.3463C32.5288 68.2432 34.553 67.9636 36.7825 67.4263M44.7636 30.7794C43.8087 36.5648 42.2405 45.4526 40.6814 53.0457M36.7825 67.4263C38.1706 67.0917 39.6384 66.6571 41.1792 66.1031C44.2494 62.8093 46.9246 59.6551 49.24 56.6368M36.7825 67.4263C37.713 66.3625 39.1931 60.294 40.6814 53.0457M12.4445 55.8043C13.4404 53.9652 17.4413 56.5096 20.4778 53.0457C24.5082 48.448 27.989 49.9192 30.7369 52.1261C32.691 50.4097 37.4156 48.1905 40.6814 53.0457M40.6814 53.0457C42.5572 52.1907 46.895 51.7121 49.24 56.6368M6.18833 44.402L11.6843 53.0457M14.7987 56.6368L21.0274 64.6318M22.3098 54.333L25.5235 65.5513M19.5618 43.1147C19.8061 45.4442 20.4412 50.1399 21.0274 50.2871M32.9353 40.7239L32.5689 48.8158M32.5689 54.333L31.4697 63.7123M42.0952 54.7008L39.7137 62.6088M45.7592 39.9883C45.4661 41.3124 44.66 45.6894 44.2936 47.7124M41.1792 66.4709L40.2633 69.7812M40.2633 69.7812L34.4009 81.5512M40.2633 69.7812H36.4161M23.0426 69.7812L27.8058 81.5512M23.0426 69.7812H24.8288M27.8058 81.5512H29.4545M27.8058 81.5512L25.9738 88.9075H23.409M34.4009 81.5512H33.1185M34.4009 81.5512L36.0497 88.4489M36.4161 69.7812L33.1185 81.5512M36.4161 69.7812H34.0345M33.1185 81.5512H32.5689M34.0345 69.7812C33.8879 69.7812 32.9964 77.6279 32.5689 81.5512M34.0345 69.7812H30.1873M32.5689 81.5512H29.4545M32.5689 81.5512V88.9075L29.4545 81.5512M30.1873 69.7812C30.0408 70.0754 30.4927 77.9957 30.7369 81.9191L26.615 69.7812M30.1873 69.7812H26.615M26.615 69.7812H24.8288M24.8288 69.7812L29.4545 81.5512M29.4545 81.5512L29.0881 88.7015M23.409 88.9075V91.6661H25.5235M23.409 88.9075L29.0881 88.7015M25.5235 91.6661C25.124 93.0761 24.8379 95.896 26.8898 95.896C28.9416 95.896 33.1185 95.896 34.9505 95.896C35.439 96.2638 36.4161 95.8592 36.4161 91.2983M25.5235 91.6661C27.0781 91.6661 31.4331 91.5926 36.4161 91.2983M36.4161 91.2983H38.6145V88.3558L36.0497 88.4489M36.0497 88.4489L29.0881 88.7015" stroke="#373737" stroke-width="0.7"/>
</svg>
