<svg width="30" height="30" viewBox="0 0 30 30" fill="none" xmlns="http://www.w3.org/2000/svg">
<path d="M10.41 16.41C10.8182 16.0037 11.3666 15.7694 11.9423 15.7553C12.518 15.7412 13.0772 15.9484 13.5047 16.3342C13.9323 16.7201 14.1956 17.2551 14.2405 17.8293C14.2854 18.4034 14.1084 18.9729 13.746 19.4205L13.5915 19.5915L7.68 25.5H9.75C10.3278 25.5003 10.8834 25.7229 11.3016 26.1216C11.7198 26.5204 11.9685 27.0647 11.9963 27.6419C12.0241 28.219 11.8287 28.7847 11.4507 29.2218C11.0728 29.6589 10.5411 29.9337 9.966 29.9895L9.75 30H2.25C1.69068 30 1.15141 29.7916 0.737372 29.4156C0.32333 29.0395 0.0641951 28.5227 0.0105 27.966L0 27.75V20.25C0.000286103 19.6722 0.222864 19.1166 0.621613 18.6984C1.02036 18.2802 1.56471 18.0315 2.14187 18.0037C2.71903 17.9759 3.28475 18.1713 3.7218 18.5493C4.15886 18.9272 4.43374 19.4589 4.4895 20.034L4.5 20.25V22.3185L10.41 16.41ZM27.75 0C28.3093 2.6848e-05 28.8486 0.20838 29.2626 0.584428C29.6767 0.960477 29.9358 1.47726 29.9895 2.034L30 2.25V9.75C29.9997 10.3278 29.7771 10.8834 29.3784 11.3016C28.9796 11.7198 28.4353 11.9685 27.8581 11.9963C27.281 12.0241 26.7153 11.8287 26.2782 11.4507C25.8411 11.0728 25.5663 10.5411 25.5105 9.966L25.5 9.75V7.6815L19.59 13.5915C19.1823 14.0006 18.6329 14.2374 18.0555 14.2526C17.4782 14.2678 16.917 14.0605 16.4883 13.6734C16.0596 13.2863 15.7962 12.7492 15.7526 12.1733C15.7089 11.5974 15.8885 11.0267 16.254 10.5795L16.4085 10.4085L22.32 4.5H20.25C19.6722 4.49971 19.1166 4.27714 18.6984 3.87839C18.2802 3.47964 18.0315 2.93529 18.0037 2.35813C17.9759 1.78097 18.1713 1.21525 18.5493 0.778198C18.9272 0.341143 19.4589 0.0662573 20.034 0.0105L20.25 0H27.75Z" fill="white"/>
</svg>
