<svg width="32" height="32" viewBox="0 0 32 32" fill="none" xmlns="http://www.w3.org/2000/svg">
<path d="M20 10.667C20.828 11.2879 21.5 12.0932 21.9628 13.0189C22.4257 13.9446 22.6667 14.9653 22.6667 16.0003C22.6667 17.0353 22.4257 18.056 21.9628 18.9817C21.5 19.9074 20.828 20.7126 20 21.3336M23.6 6.66696C24.992 7.79182 26.1147 9.21379 26.886 10.8287C27.6572 12.4436 28.0575 14.2106 28.0575 16.0003C28.0575 17.7899 27.6572 19.5569 26.886 21.1719C26.1147 22.7868 24.992 24.2088 23.6 25.3336M8 20.0003H5.33333C4.97971 20.0003 4.64057 19.8598 4.39052 19.6098C4.14048 19.3597 4 19.0206 4 18.667V13.3336C4 12.98 4.14048 12.6409 4.39052 12.3908C4.64057 12.1408 4.97971 12.0003 5.33333 12.0003H8L12.6667 6.00029C12.7832 5.77393 12.9769 5.59672 13.2127 5.50068C13.4484 5.40464 13.7108 5.3961 13.9523 5.47661C14.1939 5.55712 14.3986 5.72137 14.5296 5.93968C14.6606 6.15798 14.7093 6.41595 14.6667 6.66696V25.3336C14.7093 25.5846 14.6606 25.8426 14.5296 26.0609C14.3986 26.2792 14.1939 26.4435 13.9523 26.524C13.7108 26.6045 13.4484 26.5959 13.2127 26.4999C12.9769 26.4039 12.7832 26.2266 12.6667 26.0003L8 20.0003Z" stroke="white" stroke-width="2" stroke-linecap="round" stroke-linejoin="round"/>
</svg>
