<svg width="176" height="179" viewBox="0 0 176 179" fill="none" xmlns="http://www.w3.org/2000/svg">
<path d="M1.96398 90.6464L10.9055 83.3401L0.107324 79.2496L1.96398 90.6464ZM4.03322 88.0654C4.28808 87.4252 4.54498 86.7924 4.80389 86.1671L2.95605 85.402C2.69358 86.0358 2.43323 86.6771 2.17502 87.3258L4.03322 88.0654ZM5.58664 84.3137C5.84955 83.7033 6.11444 83.1003 6.38127 82.5047L4.55606 81.687C4.28523 82.2915 4.01646 82.9033 3.74978 83.5225L5.58664 84.3137ZM7.18759 80.7398C7.45829 80.1588 7.73091 79.5852 8.00541 79.0188L6.20562 78.1465C5.92664 78.7222 5.64967 79.305 5.37473 79.8951L7.18759 80.7398ZM8.91925 77.1735C9.23299 76.5535 9.54908 75.9427 9.86746 75.3409L8.09963 74.4056C7.77552 75.0182 7.45389 75.6398 7.13477 76.2703L8.91925 77.1735ZM10.8294 73.5626C11.1524 72.9789 11.4775 72.404 11.8049 71.8381L10.0737 70.8367C9.73983 71.4138 9.40837 71.9997 9.07935 72.5945L10.8294 73.5626ZM12.7936 70.1669C13.1253 69.6186 13.4592 69.0792 13.7952 68.5485L12.1053 67.4787C11.762 68.021 11.421 68.5719 11.0824 69.1315L12.7936 70.1669ZM14.9161 66.8218C15.2981 66.248 15.6827 65.685 16.0699 65.1329L14.4322 63.9847C14.0358 64.5503 13.6421 65.1264 13.2513 65.7134L14.9161 66.8218ZM17.2387 63.5085C17.6308 62.9777 18.0254 62.4575 18.4223 61.9479L16.8445 60.7189C16.4369 61.2421 16.0321 61.7758 15.6301 62.3201L17.2387 63.5085ZM19.6203 60.4504C20.0468 59.9314 20.4759 59.4242 20.9076 58.9286L19.3994 57.615C18.955 58.1252 18.5136 58.647 18.0751 59.1805L19.6203 60.4504ZM22.2706 57.4109C22.7277 56.9176 23.1875 56.4368 23.6499 55.9683L22.2265 54.5633C21.7491 55.047 21.2748 55.543 20.8035 56.0516L22.2706 57.4109ZM25.0448 54.5999C25.5123 54.156 25.9823 53.7243 26.4548 53.3046L25.1266 51.8093C24.6374 52.2439 24.151 52.6905 23.6677 53.1495L25.0448 54.5999ZM27.9836 51.9954C28.5054 51.5649 29.0299 51.1486 29.5572 50.7462L28.3439 49.1563C27.7963 49.5742 27.2519 50.0063 26.7108 50.4527L27.9836 51.9954ZM31.1472 49.5804C31.6799 49.2056 32.2151 48.8445 32.7529 48.4968L31.6672 46.8172C31.1072 47.1792 30.5502 47.555 29.9963 47.9448L31.1472 49.5804ZM34.4192 47.4673C34.9983 47.1258 35.5802 46.7994 36.1647 46.4878L35.2239 44.7229C34.6139 45.0481 34.007 45.3885 33.4033 45.7445L34.4192 47.4673ZM37.9262 45.5972C38.516 45.315 39.1084 45.0473 39.7032 44.794L38.9195 42.9539C38.2978 43.2187 37.6789 43.4983 37.0629 43.7931L37.9262 45.5972ZM41.5166 44.0685C42.1386 43.8355 42.7631 43.6177 43.3902 43.4147L42.7741 41.5119C42.1184 41.7242 41.4654 41.952 40.8151 42.1956L41.5166 44.0685ZM45.2785 42.8499C45.9103 42.6763 46.5445 42.5173 47.181 42.3726L46.7376 40.4223C46.0723 40.5736 45.4093 40.7398 44.7486 40.9213L45.2785 42.8499ZM49.1034 41.98C49.75 41.8627 50.3987 41.7598 51.0496 41.6709L50.7789 39.6893C50.0995 39.7821 49.422 39.8896 48.7465 40.0121L49.1034 41.98ZM53.0082 41.4461C53.6631 41.385 54.3199 41.3378 54.9786 41.3041L54.8764 39.3067C54.1902 39.3418 53.5055 39.391 52.8225 39.4547L53.0082 41.4461ZM56.9477 41.2435C57.601 41.2366 58.256 41.2426 58.9125 41.2613L58.9696 39.2621C58.2874 39.2427 57.6063 39.2364 56.9265 39.2436L56.9477 41.2435ZM60.8866 41.3554C61.5461 41.3994 62.207 41.4558 62.8692 41.5244L63.0754 39.5351C62.3892 39.4639 61.7039 39.4054 61.0195 39.3599L60.8866 41.3554ZM64.832 41.763C65.4779 41.8529 66.1249 41.9542 66.7729 42.0667L67.1148 40.0961C66.4452 39.9799 65.7762 39.8752 65.1078 39.7821L64.832 41.763ZM68.7195 42.4371C69.3693 42.5716 70.0199 42.7169 70.6712 42.873L71.1372 40.928C70.4661 40.7672 69.7953 40.6173 69.1248 40.4786L68.7195 42.4371ZM72.5985 43.3652C73.2278 43.5359 73.8576 43.7162 74.4879 43.9061L75.0649 41.9911C74.4171 41.796 73.7694 41.6105 73.1218 41.4349L72.5985 43.3652ZM76.3797 44.5042C77.0106 44.7129 77.6418 44.931 78.2732 45.1583L78.9505 43.2765C78.3032 43.0435 77.6556 42.8197 77.008 42.6054L76.3797 44.5042ZM80.1551 45.8624C80.7629 46.0984 81.3707 46.3426 81.9785 46.595L82.7455 44.7479C82.1237 44.4897 81.5014 44.2397 80.8789 43.998L80.1551 45.8624ZM83.8015 47.3762C84.409 47.6445 85.0163 47.9208 85.6233 48.2048L86.4709 46.3933C85.851 46.1033 85.2306 45.821 84.6096 45.5467L83.8015 47.3762ZM87.4432 49.0799C88.0327 49.3708 88.6217 49.6689 89.2102 49.974L90.1306 48.1983C89.5306 47.8873 88.9299 47.5833 88.3285 47.2865L87.4432 49.0799ZM90.9598 50.902C91.5424 51.2181 92.1245 51.5409 92.7058 51.8701L93.6915 50.1299C93.0997 49.7947 92.507 49.466 91.9135 49.144L90.9598 50.902ZM94.4478 52.8774C95.0237 53.2172 95.5989 53.5632 96.1732 53.9154L97.2187 52.2105C96.6349 51.8524 96.05 51.5005 95.4641 51.1548L94.4478 52.8774ZM97.8506 54.9628C98.4088 55.3177 98.9661 55.6781 99.5224 56.0441L100.622 54.3733C100.057 54.0016 99.4906 53.6355 98.9234 53.275L97.8506 54.9628ZM101.188 57.1583C101.742 57.5351 102.295 57.9173 102.847 58.3046L103.996 56.6675C103.436 56.2746 102.875 55.8868 102.313 55.5044L101.188 57.1583ZM104.478 59.4664C105.013 59.8535 105.547 60.2454 106.08 60.642L107.274 59.0376C106.734 58.6357 106.193 58.2384 105.65 57.8458L104.478 59.4664ZM107.674 61.8453C108.204 62.251 108.733 62.6612 109.26 63.0757L110.497 61.5034C109.963 61.0836 109.427 60.6681 108.89 60.2571L107.674 61.8453ZM110.838 64.3321C111.355 64.7497 111.871 65.1715 112.386 65.5971L113.661 64.0563C113.14 63.6254 112.618 63.1985 112.094 62.7757L110.838 64.3321ZM113.914 66.8776C114.422 67.3082 114.929 67.7426 115.433 68.1806L116.744 66.6704C116.234 66.2273 115.722 65.7878 115.208 65.352L113.914 66.8776ZM116.942 69.5056C117.443 69.9508 117.942 70.3995 118.44 70.8515L119.785 69.3715C119.282 68.9144 118.777 68.4607 118.27 68.0104L116.942 69.5056ZM119.913 72.2056C120.401 72.6588 120.887 73.1151 121.371 73.5744L122.747 72.1239C122.258 71.6597 121.767 71.1985 121.274 70.7404L119.913 72.2056ZM122.816 74.9614C123.296 75.4267 123.774 75.8948 124.25 76.3658L125.657 74.9445C125.176 74.4687 124.693 73.9957 124.208 73.5255L122.816 74.9614ZM125.67 77.7868C126.14 78.2617 126.608 78.7391 127.073 79.2191L128.509 77.8267C128.039 77.342 127.567 76.8597 127.092 76.38L125.67 77.7868ZM128.462 80.6649C128.922 81.1492 129.38 81.6359 129.836 82.1248L131.299 80.7611C130.839 80.2674 130.376 79.7759 129.911 79.2868L128.462 80.6649ZM131.196 83.5981C131.647 84.0913 132.095 84.5866 132.541 85.084L134.03 83.7489C133.58 83.2468 133.127 82.7467 132.672 82.2487L131.196 83.5981ZM133.875 86.5862C134.317 87.0893 134.757 87.5943 135.194 88.1011L136.709 86.7947C136.267 86.2831 135.823 85.7733 135.377 85.2654L133.875 86.5862ZM136.498 89.6263C136.929 90.1364 137.358 90.6481 137.784 91.1612L139.323 89.8836C138.893 89.3656 138.46 88.8492 138.024 88.3343L136.498 89.6263ZM139.054 92.7049C139.478 93.2257 139.9 93.7479 140.318 94.2713L141.88 93.0228C141.458 92.4945 141.033 91.9674 140.605 91.4417L139.054 92.7049ZM141.567 95.8502C141.981 96.3776 142.391 96.9061 142.798 97.4356L144.384 96.2167C143.973 95.6823 143.559 95.1488 143.141 94.6164L141.567 95.8502ZM144.009 99.0268C144.41 99.5581 144.807 100.09 145.201 100.623L146.809 99.4342C146.411 98.8963 146.01 98.3592 145.606 97.8229L144.009 99.0268ZM146.393 102.252C146.788 102.798 147.18 103.344 147.568 103.891L149.199 102.734C148.807 102.182 148.412 101.63 148.012 101.079L146.393 102.252ZM148.721 105.533C149.102 106.08 149.479 106.628 149.852 107.176L151.505 106.051C151.128 105.497 150.748 104.944 150.363 104.391L148.721 105.533ZM150.959 108.82C151.336 109.386 151.709 109.952 152.078 110.517L153.753 109.425C153.381 108.854 153.004 108.283 152.624 107.711L150.959 108.82ZM153.17 112.213C153.53 112.778 153.886 113.343 154.237 113.907L155.935 112.851C155.58 112.28 155.221 111.71 154.857 111.139L153.17 112.213ZM155.277 115.598C155.624 116.169 155.966 116.74 156.304 117.309L158.024 116.29C157.683 115.714 157.337 115.137 156.986 114.56L155.277 115.598ZM157.33 119.064C157.667 119.648 157.999 120.231 158.326 120.813L160.07 119.833C159.739 119.245 159.403 118.655 159.063 118.064L157.33 119.064ZM159.29 122.554C159.607 123.133 159.917 123.71 160.223 124.286L161.99 123.349C161.68 122.766 161.366 122.181 161.046 121.595L159.29 122.554ZM161.164 126.09C161.474 126.694 161.778 127.296 162.076 127.896L163.867 127.006C163.566 126.398 163.257 125.788 162.943 125.176L161.164 126.09ZM162.95 129.688C163.235 130.283 163.514 130.876 163.786 131.466L165.602 130.628C165.326 130.029 165.043 129.428 164.754 128.824L162.95 129.688ZM164.615 133.302C164.892 133.926 165.16 134.548 165.421 135.166L167.264 134.388C166.998 133.759 166.725 133.127 166.444 132.493L164.615 133.302ZM166.181 137.008C166.426 137.619 166.664 138.225 166.893 138.828L168.762 138.116C168.528 137.502 168.286 136.884 168.037 136.262L166.181 137.008ZM167.592 140.719C167.823 141.363 168.043 142.002 168.254 142.635L170.152 142.002C169.936 141.355 169.71 140.702 169.475 140.045L167.592 140.719ZM168.858 144.517C169.049 145.138 169.23 145.754 169.401 146.363L171.327 145.822C171.151 145.197 170.965 144.565 170.769 143.928L168.858 144.517ZM169.929 148.352C170.093 149.008 170.244 149.655 170.383 150.295L172.337 149.871C172.194 149.211 172.038 148.543 171.87 147.867L169.929 148.352ZM170.759 152.185C170.881 152.856 170.988 153.517 171.079 154.166L173.059 153.888C172.964 153.211 172.854 152.525 172.727 151.829L170.759 152.185ZM171.312 156.148C171.373 156.796 171.418 157.431 171.445 158.052L173.443 157.964C173.414 157.308 173.367 156.639 173.303 155.96L171.312 156.148ZM171.473 160.042C171.462 160.711 171.428 161.362 171.372 161.993L173.364 162.169C173.425 161.488 173.46 160.79 173.473 160.076L171.473 160.042ZM171.134 163.849C171.02 164.516 170.877 165.157 170.706 165.771L172.632 166.309C172.823 165.624 172.98 164.916 173.105 164.186L171.134 163.849ZM170.106 167.532C169.863 168.129 169.586 168.694 169.277 169.227L171.007 170.23C171.365 169.614 171.681 168.966 171.958 168.288L170.106 167.532ZM168.229 170.755C167.846 171.23 167.427 171.673 166.972 172.082L168.309 173.57C168.844 173.088 169.336 172.568 169.786 172.011L168.229 170.755ZM165.494 173.209C165.228 173.38 164.953 173.543 164.667 173.697L165.616 175.457C165.947 175.279 166.267 175.09 166.577 174.89L165.494 173.209ZM164.667 173.697C164.379 173.852 164.089 174.001 163.797 174.145L164.68 175.94C164.994 175.785 165.306 175.624 165.616 175.457L164.667 173.697ZM162.021 174.938C161.42 175.179 160.812 175.398 160.195 175.595L160.804 177.5C161.466 177.289 162.121 177.053 162.767 176.793L162.021 174.938ZM158.322 176.12C157.691 176.272 157.053 176.403 156.409 176.512L156.743 178.484C157.432 178.367 158.116 178.227 158.792 178.064L158.322 176.12ZM154.483 176.773C153.836 176.839 153.182 176.885 152.523 176.91L152.6 178.909C153.3 178.882 153.996 178.833 154.687 178.763L154.483 176.773ZM150.577 176.926C149.926 176.912 149.27 176.88 148.611 176.828L148.456 178.822C149.152 178.876 149.845 178.911 150.534 178.926L150.577 176.926ZM146.659 176.623C146.015 176.538 145.368 176.436 144.719 176.317L144.359 178.285C145.04 178.409 145.72 178.517 146.398 178.606L146.659 176.623ZM142.774 175.913C142.144 175.767 141.512 175.605 140.878 175.428L140.34 177.354C141.001 177.539 141.662 177.708 142.321 177.861L142.774 175.913ZM138.973 174.851C138.354 174.65 137.733 174.434 137.112 174.204L136.418 176.08C137.064 176.319 137.709 176.543 138.354 176.753L138.973 174.851ZM135.269 173.483C134.658 173.23 134.045 172.964 133.434 172.685L132.604 174.505C133.237 174.794 133.871 175.069 134.506 175.331L135.269 173.483ZM131.66 171.84C131.069 171.546 130.478 171.24 129.889 170.923L128.941 172.683C129.549 173.011 130.158 173.327 130.769 173.63L131.66 171.84ZM128.151 169.951C127.584 169.622 127.019 169.283 126.455 168.933L125.401 170.633C125.981 170.993 126.564 171.342 127.148 171.681L128.151 169.951ZM124.768 167.852C124.219 167.49 123.672 167.117 123.128 166.735L121.978 168.371C122.538 168.764 123.1 169.148 123.665 169.521L124.768 167.852ZM121.517 165.571C120.983 165.174 120.451 164.768 119.922 164.352L118.687 165.925C119.23 166.352 119.776 166.769 120.325 167.177L121.517 165.571ZM118.378 163.108C117.869 162.687 117.363 162.258 116.86 161.82L115.547 163.329C116.062 163.778 116.581 164.218 117.103 164.649L118.378 163.108ZM115.36 160.482C114.874 160.038 114.391 159.586 113.912 159.127L112.528 160.57C113.019 161.041 113.513 161.504 114.01 161.959L115.36 160.482ZM112.49 157.73C112.02 157.257 111.553 156.777 111.09 156.289L109.64 157.666C110.113 158.165 110.591 158.657 111.072 159.141L112.49 157.73ZM109.74 154.833C109.295 154.343 108.854 153.845 108.417 153.341L106.905 154.65C107.352 155.166 107.803 155.675 108.258 156.177L109.74 154.833ZM107.121 151.809C106.699 151.3 106.282 150.784 105.869 150.262L104.3 151.502C104.722 152.035 105.149 152.563 105.58 153.084L107.121 151.809ZM104.651 148.684C104.249 148.152 103.852 147.615 103.46 147.071L101.838 148.24C102.238 148.796 102.644 149.346 103.054 149.889L104.651 148.684ZM102.312 145.44C101.937 144.894 101.566 144.343 101.201 143.786L99.5289 144.883C99.9021 145.452 100.281 146.016 100.664 146.574L102.312 145.44ZM100.122 142.1C99.7695 141.537 99.4227 140.968 99.0815 140.394L97.3625 141.416C97.7112 142.003 98.0656 142.584 98.4256 143.16L100.122 142.1ZM98.0826 138.672C97.7553 138.093 97.4337 137.509 97.118 136.92L95.3556 137.866C95.6783 138.467 96.007 139.064 96.3415 139.656L98.0826 138.672ZM96.1915 135.146C95.8916 134.555 95.5976 133.961 95.3099 133.362L93.5071 134.228C93.8013 134.84 94.1018 135.448 94.4084 136.052L96.1915 135.146ZM94.4653 131.552C94.19 130.945 93.9211 130.333 93.6588 129.718L91.8189 130.502C92.0872 131.131 92.3621 131.757 92.6436 132.378L94.4653 131.552ZM92.8996 127.879C92.6533 127.263 92.4135 126.643 92.1805 126.019L90.3069 126.719C90.5453 127.357 90.7905 127.991 91.0425 128.621L92.8996 127.879ZM91.5019 124.136C91.2842 123.51 91.0733 122.879 90.8694 122.246L88.9655 122.858C89.1741 123.507 89.3899 124.151 89.6127 124.793L91.5019 124.136ZM90.2815 120.343C90.0926 119.705 89.9108 119.064 89.7364 118.42L87.8059 118.943C87.9845 119.602 88.1705 120.258 88.3638 120.911L90.2815 120.343ZM89.2369 116.485C89.0791 115.842 88.9287 115.197 88.7858 114.549L86.8327 114.979C86.979 115.643 87.1331 116.304 87.2946 116.962L89.2369 116.485ZM88.3797 112.595C88.2519 111.941 88.1318 111.284 88.0196 110.625L86.048 110.961C86.1629 111.636 86.286 112.309 86.4168 112.979L88.3797 112.595ZM87.7099 108.663C87.6146 108.007 87.5271 107.349 87.4475 106.689L85.4619 106.928C85.5434 107.605 85.6331 108.279 85.7307 108.951L87.7099 108.663ZM87.2329 104.701C87.1699 104.04 87.1148 103.378 87.068 102.713L85.0729 102.854C85.1209 103.535 85.1773 104.214 85.2419 104.891L87.2329 104.701ZM86.9528 100.73C86.9226 100.067 86.9005 99.4026 86.8868 98.7358L84.8872 98.777C84.9013 99.4605 84.9239 100.142 84.9549 100.822L86.9528 100.73ZM86.8708 96.7299C86.8738 96.0716 86.8851 95.4117 86.9046 94.75L84.9055 94.6909C84.8854 95.3692 84.8739 96.0458 84.8708 96.7206L86.8708 96.7299ZM86.9884 92.7622C87.0247 92.098 87.0695 91.4323 87.123 90.7651L85.1293 90.6054C85.0746 91.2895 85.0286 91.972 84.9914 92.6529L86.9884 92.7622ZM87.3073 88.7777C87.3763 88.1232 87.4537 87.4675 87.5396 86.8106L85.5565 86.5513C85.4684 87.2248 85.3891 87.897 85.3183 88.5679L87.3073 88.7777ZM87.8229 84.8363C87.9259 84.177 88.0376 83.5166 88.158 82.8552L86.1904 82.4969C86.0669 83.1748 85.9525 83.8517 85.8469 84.5275L87.8229 84.8363ZM88.5372 80.9095C88.6712 80.2647 88.8135 79.6189 88.9645 78.9723L87.0168 78.5177C86.8622 79.1802 86.7163 79.842 86.579 80.5028L88.5372 80.9095ZM89.443 77.0302C89.6112 76.382 89.7881 75.7331 89.9737 75.0835L88.0507 74.5339C87.8606 75.1992 87.6794 75.8639 87.5071 76.5279L89.443 77.0302ZM90.5372 73.1974C90.7333 72.5682 90.9378 71.9384 91.1507 71.3081L89.256 70.6679C89.0379 71.3131 88.8286 71.958 88.6277 72.6023L90.5372 73.1974ZM91.8152 69.4158C92.0441 68.7875 92.2816 68.1587 92.5278 67.5297L90.6653 66.801C90.4134 67.4446 90.1704 68.0879 89.9361 68.7309L91.8152 69.4158ZM93.2653 65.7059C93.5193 65.0976 93.7814 64.4892 94.0518 63.8805L92.224 63.0685C91.9475 63.6909 91.6795 64.3131 91.4197 64.9352L93.2653 65.7059ZM94.8879 62.0538C95.1739 61.4471 95.4682 60.8402 95.7708 60.2333L93.9811 59.3407C93.6718 59.9608 93.3711 60.581 93.0788 61.2012L94.8879 62.0538ZM96.6658 58.4855C96.9719 57.9029 97.2859 57.3202 97.6078 56.7376L95.8573 55.7703C95.5286 56.3652 95.208 56.9602 94.8953 57.5552L96.6658 58.4855ZM98.5975 54.99C98.9355 54.4075 99.2814 53.8251 99.6355 53.2429L97.9266 52.2037C97.5654 52.7977 97.2124 53.3919 96.8676 53.9864L98.5975 54.99ZM100.675 51.5706C101.027 51.0171 101.386 50.4637 101.753 49.9107L100.086 48.8056C99.712 49.3694 99.3458 49.9335 98.9872 50.498L100.675 51.5706ZM102.875 48.2522C103.257 47.6996 103.647 47.1473 104.044 46.5954L102.42 45.4274C102.016 45.9896 101.619 46.5522 101.23 47.1153L102.875 48.2522ZM105.229 44.9786C105.62 44.4566 106.017 43.935 106.421 43.4138L104.841 42.1881C104.429 42.7186 104.025 43.2496 103.628 43.781L105.229 44.9786ZM107.655 41.8513C108.073 41.3309 108.499 40.8109 108.931 40.2914L107.394 39.0116C106.954 39.5399 106.522 40.0688 106.096 40.5982L107.655 41.8513ZM110.251 38.7342C110.679 38.2377 111.113 37.7417 111.554 37.2462L110.061 35.9161C109.612 36.4196 109.171 36.9237 108.736 37.4284L110.251 38.7342ZM112.878 35.7834C113.326 35.2963 113.78 34.8098 114.241 34.3238L112.79 32.9476C112.322 33.4411 111.86 33.9352 111.406 34.43L112.878 35.7834ZM115.643 32.8675C116.117 32.3827 116.598 31.8984 117.086 31.4148L115.677 29.9949C115.183 30.4856 114.695 30.977 114.213 31.4692L115.643 32.8675ZM118.498 30.0337C118.969 29.5802 119.445 29.1273 119.927 28.675L118.56 27.2159C118.07 27.6745 117.587 28.1338 117.11 28.5938L118.498 30.0337ZM121.393 27.32C121.887 26.869 122.388 26.4187 122.895 25.969L121.567 24.473C121.054 24.9287 120.547 25.3851 120.045 25.8423L121.393 27.32ZM124.434 24.622C124.693 24.3979 124.954 24.174 125.217 23.9502L123.92 22.428C123.654 22.6546 123.389 22.8814 123.126 23.1084L124.434 24.622ZM125.217 23.9502C125.477 23.7285 125.737 23.5086 125.997 23.2906L124.713 21.7574C124.449 21.979 124.184 22.2025 123.92 22.428L125.217 23.9502ZM127.559 22.005C128.08 21.584 128.6 21.1704 129.121 20.7643L127.89 19.1876C127.36 19.601 126.831 20.0218 126.301 20.4501L127.559 22.005ZM130.682 19.5678C131.209 19.1708 131.737 18.7813 132.265 18.3992L131.092 16.7794C130.554 17.1686 130.017 17.5653 129.479 17.9696L130.682 19.5678ZM133.915 17.228C134.465 16.8456 135.015 16.4712 135.565 16.1048L134.456 14.4405C133.895 14.8142 133.335 15.1959 132.774 15.5857L133.915 17.228ZM137.215 15.0292C137.771 14.6744 138.326 14.3278 138.882 13.989L137.841 12.2813C137.274 12.6272 136.706 12.9811 136.139 13.3431L137.215 15.0292ZM140.616 12.957C141.194 12.6216 141.772 12.2946 142.349 11.9761L141.383 10.2248C140.793 10.5504 140.203 10.8846 139.612 11.2273L140.616 12.957ZM144.081 11.0456C144.669 10.7381 145.256 10.4392 145.844 10.1489L144.957 8.35608C144.356 8.65318 143.755 8.95892 143.154 9.27338L144.081 11.0456ZM147.653 9.28062C148.256 9.00012 148.859 8.72849 149.461 8.46564L148.661 6.63266C148.044 6.90192 147.427 7.18011 146.809 7.46731L147.653 9.28062ZM151.266 7.70327C151.886 7.45046 152.505 7.20684 153.123 6.97229L152.414 5.10218C151.78 5.34269 151.145 5.59243 150.51 5.85151L151.266 7.70327ZM154.996 6.28927C155.62 6.07076 156.243 5.86136 156.866 5.66095L156.254 3.75707C155.615 3.96273 154.975 4.17757 154.335 4.40171L154.996 6.28927ZM158.748 5.08227C159.39 4.89385 160.032 4.71489 160.673 4.54524L160.162 2.61177C159.503 2.78597 158.844 2.96972 158.185 3.16314L158.748 5.08227ZM162.595 4.06411C163.235 3.91296 163.874 3.77099 164.513 3.63806L164.106 1.68001C163.449 1.81657 162.793 1.96241 162.135 2.11766L162.595 4.06411ZM166.468 3.25894C167.122 3.14144 167.775 3.0333 168.427 2.93438L168.127 0.956996C167.457 1.05864 166.786 1.16976 166.114 1.29049L166.468 3.25894ZM170.381 2.66513C171.038 2.58373 171.694 2.51158 172.349 2.44853L172.158 0.457729C171.484 0.52252 170.81 0.596664 170.135 0.680307L170.381 2.66513ZM174.329 2.2854C174.988 2.24017 175.647 2.20405 176.304 2.17688L176.222 0.178585C175.546 0.206501 174.87 0.243615 174.192 0.290087L174.329 2.2854ZM178.28 2.122C178.943 2.11253 179.605 2.11207 180.266 2.12046L180.291 0.120618C179.612 0.112008 178.932 0.112477 178.251 0.122198L178.28 2.122ZM182.247 2.17202C182.906 2.19796 183.564 2.2326 184.222 2.27579L184.353 0.280096C183.678 0.235768 183.002 0.200198 182.325 0.173562L182.247 2.17202ZM186.2 2.43177C186.859 2.4923 187.516 2.56131 188.172 2.63864L188.407 0.652383C187.733 0.573068 187.059 0.502275 186.383 0.440168L186.2 2.43177ZM190.138 2.89546C190.792 2.98933 191.445 3.09138 192.097 3.20146L192.43 1.22937C191.762 1.11657 191.093 1.01197 190.422 0.915737L190.138 2.89546ZM194.049 3.55562C194.699 3.68159 195.347 3.81544 195.994 3.95701L196.422 2.00323C195.759 1.8583 195.096 1.72124 194.43 1.59221L194.049 3.55562ZM197.927 4.40369C198.569 4.55999 199.21 4.7238 199.85 4.89497L200.367 2.96297C199.713 2.78791 199.057 2.62033 198.4 2.46041L197.927 4.40369ZM201.765 5.43041C202.4 5.61566 203.033 5.80807 203.666 6.00751L204.267 4.10014C203.621 3.89639 202.974 3.69976 202.325 3.51041L201.765 5.43041ZM205.552 6.62458C206.179 6.83714 206.805 7.05652 207.43 7.28257L208.11 5.40204C207.473 5.17135 206.834 4.94741 206.194 4.73037L205.552 6.62458ZM209.295 7.9794C209.911 8.21679 210.526 8.4606 211.14 8.71068L211.895 6.85867C211.269 6.60373 210.642 6.35512 210.014 6.11298L209.295 7.9794ZM212.975 9.47958C213.586 9.74205 214.194 10.0106 214.801 10.2852L215.625 8.46299C215.007 8.18337 214.387 7.90976 213.766 7.64233L212.975 9.47958ZM216.602 11.1198C217.201 11.4037 217.798 11.6933 218.393 11.9885L219.282 10.1967C218.676 9.8964 218.069 9.60167 217.459 9.31272L216.602 11.1198ZM220.173 12.8906C220.762 13.1951 221.348 13.5049 221.933 13.82L222.882 12.0593C222.287 11.739 221.691 11.424 221.092 11.1144L220.173 12.8906ZM223.677 14.7782C224.257 15.1027 224.835 15.4322 225.411 15.7667L226.415 14.0372C225.83 13.6975 225.243 13.3627 224.654 13.033L223.677 14.7782ZM227.128 16.7818C227.696 17.1234 228.262 17.4696 228.826 17.8204L229.882 16.122C229.31 15.766 228.736 15.4146 228.159 15.0679L227.128 16.7818ZM230.513 18.8862C231.073 19.2459 231.631 19.61 232.187 19.9784L233.292 18.311C232.728 17.9375 232.162 17.5682 231.593 17.2034L230.513 18.8862ZM233.839 21.0893C234.388 21.4637 234.935 21.8423 235.479 22.2247L236.629 20.5879C236.077 20.2004 235.523 19.8168 234.967 19.4372L233.839 21.0893ZM237.107 23.3838C237.646 23.7728 238.183 24.1656 238.718 24.5621L239.909 22.9555C239.367 22.5541 238.824 22.1563 238.278 21.7622L237.107 23.3838ZM240.313 25.7604C240.842 26.1634 241.37 26.5699 241.895 26.9797L243.126 25.403C242.594 24.9882 242.06 24.5767 241.524 24.1688L240.313 25.7604ZM243.463 28.2183C243.983 28.6337 244.5 29.0523 245.015 29.474L246.282 27.9265C245.761 27.5 245.238 27.0765 244.712 26.6562L243.463 28.2183ZM246.553 30.7482C247.064 31.1759 247.572 31.6065 248.078 32.04L249.379 30.5212C248.868 30.083 248.354 29.6476 247.838 29.2151L246.553 30.7482ZM249.589 33.3485C250.09 33.7874 250.589 34.229 251.085 34.6731L252.418 33.1826C251.917 32.7338 251.413 32.2875 250.906 31.8439L249.589 33.3485ZM252.567 36.0128C253.059 36.4625 253.549 36.9146 254.036 37.369L255.4 35.9062C254.908 35.4472 254.413 34.9905 253.916 34.5362L252.567 36.0128ZM255.492 38.7404C255.975 39.1997 256.455 39.6611 256.933 40.1246L258.326 38.6891C257.843 38.2211 257.358 37.7552 256.871 37.2913L255.492 38.7404ZM258.36 41.5222C258.835 41.9922 259.308 42.4641 259.778 42.9377L261.197 41.5291C260.723 41.051 260.246 40.5747 259.766 40.1002L258.36 41.5222ZM261.179 44.3637C261.644 44.8406 262.106 45.3192 262.565 45.7992L264.01 44.417C263.547 43.9326 263.081 43.4497 262.612 42.9683L261.179 44.3637ZM263.943 47.2544C264.401 47.7416 264.856 48.2302 265.307 48.7199L266.777 47.3639C266.322 46.8698 265.863 46.3769 265.401 45.8853L263.943 47.2544ZM266.654 50.1927C267.103 50.6879 267.549 51.1841 267.991 51.6812L269.485 50.351C269.038 49.8496 268.589 49.3491 268.136 48.8496L266.654 50.1927ZM269.319 53.1848C269.758 53.6868 270.195 54.1896 270.628 54.693L272.144 53.3885C271.707 52.8808 271.267 52.3737 270.824 51.8674L269.319 53.1848ZM271.923 56.2106C272.357 56.7236 272.788 57.2371 273.215 57.7509L274.753 56.472C274.322 55.9539 273.887 55.4361 273.45 54.9189L271.923 56.2106ZM274.487 59.2932C274.908 59.8076 275.325 60.3221 275.739 60.8367L277.297 59.5831C276.88 59.0644 276.459 58.5456 276.035 58.027L274.487 59.2932ZM276.996 62.4126C277.411 62.9379 277.823 63.463 278.231 63.9878L279.81 62.76C279.399 62.2309 278.983 61.7015 278.565 61.172L276.996 62.4126ZM279.445 65.5612C279.854 66.0965 280.26 66.6314 280.661 67.1656L282.26 65.9636C281.855 65.4251 281.446 64.8859 281.033 64.3462L279.445 65.5612ZM281.859 68.7724C282.255 69.3073 282.646 69.8412 283.034 70.3741L284.651 69.1983C284.261 68.661 283.866 68.1227 283.468 67.5835L281.859 68.7724ZM284.21 72.0069C284.601 72.554 284.987 73.0997 285.369 73.6439L287.006 72.4949C286.621 71.9462 286.231 71.396 285.838 70.8444L284.21 72.0069ZM286.502 75.2719C286.886 75.8282 287.265 76.3828 287.639 76.9353L289.295 75.8138C288.917 75.2566 288.535 74.6974 288.148 74.1364L286.502 75.2719ZM288.756 78.6001C289.123 79.1529 289.486 79.7034 289.844 80.2513L291.518 79.1584C291.158 78.6056 290.792 78.0504 290.421 77.4929L288.756 78.6001ZM290.941 81.9503C291.304 82.5164 291.66 83.0795 292.012 83.6394L293.706 82.5767C293.352 82.0117 292.992 81.4435 292.626 80.8723L290.941 81.9503ZM293.055 85.3199C293.412 85.9012 293.763 86.4786 294.108 87.0519L295.822 86.0213C295.474 85.4425 295.12 84.8595 294.759 84.2728L293.055 85.3199ZM295.123 88.759C295.289 89.0414 295.453 89.3227 295.616 89.6028L297.345 88.5979C297.181 88.3148 297.015 88.0307 296.847 87.7454L295.123 88.759Z" fill="#6D6D6D"/>
</svg>
