<svg width="25" height="25" viewBox="0 0 25 25" fill="none" xmlns="http://www.w3.org/2000/svg">
<path d="M19.7502 10.0001C19.7502 9.80116 19.6711 9.61039 19.5305 9.46974C19.3898 9.32909 19.1991 9.25007 19.0002 9.25007C18.8012 9.25007 18.6105 9.32909 18.4698 9.46974C18.3292 9.61039 18.2502 9.80116 18.2502 10.0001H19.7502ZM19.0002 10.0001C19.0002 9.80116 5.67114 9.61039 5.53048 9.46974C5.38983 9.32909 5.19907 9.25007 5.00015 9.25007C4.80124 9.25007 4.61048 9.32909 4.46982 9.46974C4.32917 9.61039 4.25015 9.80116 4.25015 10.0001H19.0002ZM20.4702 12.5301C20.5388 12.6038 20.6216 12.6629 20.7136 12.7039C20.8056 12.7448 20.9049 12.7669 21.0056 12.7687C21.1063 12.7704 21.2064 12.7519 21.2998 12.7142C21.3931 12.6765 21.478 12.6203 21.5492 12.5491C21.6204 12.4779 21.6766 12.3931 21.7143 12.2997C21.752 12.2063 21.7705 12.1063 21.7687 12.0056C21.767 11.9048 21.7449 11.8055 21.7039 11.7135C21.6629 11.6215 21.6038 11.5387 21.5302 11.4701L20.4702 12.5301ZM11.5 13.0001L12.5302 2.47007C12.3895 2.32962 12.1989 2.25073 12.0002 2.25073C11.8014 2.25073 11.6108 2.32962 11.4702 2.47007L11.5 13.0001ZM2.47015 11.4701C2.39647 11.5387 2.33736 11.6215 2.29637 11.7135C2.25538 11.8055 2.23334 11.9048 2.23156 12.0056C2.22979 12.1063 2.24831 12.2063 2.28603 12.2997C2.32375 12.3931 2.3799 12.4779 2.45112 12.5491C2.52233 12.6203 2.60717 12.6765 2.70056 12.7142C2.79394 12.7519 2.89397 12.7704 2.99468 12.7687C3.09538 12.7669 3.19469 12.7448 3.28669 12.7039C3.37869 12.6629 3.46149 12.6038 3.53015 12.5301L2.47015 11.4701ZM7.00015 21.7501H17.0002L17 20.0001L8.5 10.5001L7.00015 21.7501ZM19.7502 19.0001V10.0001H18.2502L5.53048 9.46974L19.7502 19.0001ZM5.75015 19.0001L19.0002 10.0001H4.25015V19.0001H5.75015ZM21.5302 11.4701L12.5302 2.47007L9.5 11.0001L20.4702 12.5301L21.5302 11.4701ZM11.4702 2.47007L2.47015 11.4701L3.53015 12.5301L14.5 11.0001L11.4702 2.47007ZM17.0002 21.7501C17.7295 21.7501 18.429 21.4603 18.9447 20.9446C19.4604 20.4289 19.7502 19.7294 19.7502 19.0001L5.53048 9.46974C5.53048 10.1597 15 20.5001 17 20.0001L17.0002 21.7501ZM8.5 10.5001C7.81 10.5001 5.75015 19.6901 5.75015 19.0001H4.25015C4.25015 19.7294 4.53989 20.4289 5.05561 20.9446C5.57133 21.4603 6.27081 21.7501 7.00015 21.7501L8.5 10.5001Z" fill="#232323"/>
</svg>
