<svg width="24" height="24" viewBox="0 0 24 24" fill="none" xmlns="http://www.w3.org/2000/svg">
<path d="M18 15V9C18 6.172 18 4.757 17.121 3.879C16.243 3 14.828 3 12 3H8C5.172 3 3.757 3 2.879 3.879C2 4.757 2 6.172 2 9V15C2 17.828 2 19.243 2.879 20.121C3.757 21 5.172 21 8 21H20M6 8H14M6 12H14M6 16H10" stroke="black" stroke-width="1.5" stroke-linecap="round" stroke-linejoin="round"/>
<path d="M18 8H19C20.414 8 21.121 8 21.56 8.44C22 8.879 22 9.586 22 11V19C22 19.5304 21.7893 20.0391 21.4142 20.4142C21.0391 20.7893 20.5304 21 20 21C19.4696 21 18.9609 20.7893 18.5858 20.4142C18.2107 20.0391 18 19.5304 18 19V8Z" stroke="black" stroke-width="1.5" stroke-linecap="round" stroke-linejoin="round"/>
</svg>
