<svg width="20" height="25" viewBox="0 0 20 25" fill="none" xmlns="http://www.w3.org/2000/svg">
<path d="M10 17.4997C9.60849 17.4998 9.22554 17.3851 8.89864 17.1696C8.57174 16.9542 8.31526 16.6475 8.161 16.2877C7.83834 16.2115 7.52073 16.1153 7.21 15.9997L7.193 15.9937C6.28058 15.6512 5.43842 15.1449 4.708 14.4997C3.72939 13.6364 2.97682 12.5468 2.51591 11.3259C2.055 10.1051 1.89974 8.79 2.06368 7.49537C2.22761 6.20074 2.70576 4.96587 3.45644 3.89843C4.20711 2.83099 5.20751 1.96339 6.37042 1.37128C7.53332 0.779165 8.82342 0.480523 10.1282 0.501389C11.433 0.522255 12.7129 0.861996 13.8563 1.49099C14.9997 2.11998 15.9718 3.01913 16.688 4.11002C17.4041 5.20092 17.8425 6.45045 17.965 7.74966C18.004 8.16266 17.665 8.49966 17.25 8.49966C16.836 8.49966 16.505 8.16266 16.457 7.75066C16.3248 6.61395 15.8948 5.53229 15.2106 4.61502C14.5263 3.69775 13.6121 2.97739 12.5602 2.52674C11.5082 2.0761 10.356 1.91116 9.21992 2.04859C8.08383 2.18602 7.00416 2.62095 6.09005 3.30941C5.17594 3.99788 4.45979 4.91548 4.01399 5.96945C3.5682 7.02341 3.40856 8.1764 3.55122 9.31184C3.69388 10.4473 4.13377 11.5249 4.82644 12.4359C5.51911 13.3468 6.43999 14.0587 7.496 14.4997L7.536 14.5167C7.736 14.5987 7.94133 14.671 8.152 14.7337C8.34464 14.2643 8.70847 13.8857 9.1698 13.6745C9.63113 13.4633 10.1555 13.4354 10.6366 13.5963C11.1178 13.7573 11.5198 14.0951 11.7613 14.5413C12.0027 14.9875 12.0655 15.5088 11.937 15.9997C11.8261 16.4291 11.5757 16.8094 11.2251 17.081C10.8744 17.3525 10.4435 17.4998 10 17.4997ZM3 15.9997H4.169C3.60991 15.5639 3.10081 15.0675 2.651 14.5197C1.92071 14.6052 1.24727 14.956 0.758561 15.5053C0.269851 16.0547 -9.04939e-05 16.7644 2.27566e-08 17.4997V18.2147C2.27566e-08 21.9327 4.21 24.4997 10 24.4997C15.79 24.4997 20 21.7917 20 18.2147V17.4997C20 16.704 19.6839 15.941 19.1213 15.3783C18.5587 14.8157 17.7956 14.4997 17 14.4997H13.355C13.4999 14.9858 13.5375 15.4976 13.465 15.9997H17L17.145 16.0067C17.516 16.0427 17.8603 16.2156 18.1108 16.4916C18.3612 16.7676 18.5 17.1269 18.5 17.4997V18.2147L18.495 18.3757C18.355 20.8957 14.926 22.9997 10 22.9997C4.889 22.9997 1.5 20.8887 1.5 18.2147V17.4997L1.507 17.3547C1.54303 16.9837 1.71589 16.6394 1.99189 16.3889C2.2679 16.1384 2.62727 15.9997 3 15.9997ZM15 8.49966C15.0002 9.40544 14.7543 10.2943 14.2886 11.0712C13.8229 11.8481 13.1549 12.4839 12.356 12.9107C11.7114 12.3243 10.8714 11.9995 10 11.9997C10.4596 11.9997 10.9148 11.9091 11.3394 11.7332C11.764 11.5574 12.1499 11.2995 12.4749 10.9745C12.7999 10.6495 13.0577 10.2637 13.2336 9.83906C13.4095 9.41442 13.5 8.95929 13.5 8.49966C13.5 8.04004 13.4095 7.58491 13.2336 7.16027C13.0577 6.73563 12.7999 6.34979 12.4749 6.02479C12.1499 5.69978 11.764 5.44198 11.3394 5.26608C10.9148 5.09019 10.4596 4.99966 10 4.99966C9.07174 4.99966 8.1815 5.36841 7.52513 6.02479C6.86875 6.68117 6.5 7.57141 6.5 8.49966C6.5 9.42792 6.86875 10.3182 7.52513 10.9745C8.1815 11.6309 9.07174 11.9997 10 11.9997C9.092 11.9997 8.266 12.3457 7.645 12.9117C6.84649 12.4852 6.17874 11.8499 5.713 11.0737C5.31646 10.413 5.07797 9.66971 5.01613 8.9017C4.95429 8.13369 5.07078 7.36178 5.35651 6.64622C5.64224 5.93066 6.08947 5.29082 6.6633 4.77664C7.23713 4.26246 7.92203 3.88785 8.66454 3.68206C9.40704 3.47626 10.1871 3.44485 10.9437 3.59028C11.7004 3.7357 12.4132 4.05403 13.0265 4.5204C13.6398 4.98678 14.137 5.58859 14.4794 6.27886C14.8217 6.96912 14.9999 7.72917 15 8.49966Z" fill="black"/>
</svg>
