<svg width="38" height="38" viewBox="0 0 38 38" fill="none" xmlns="http://www.w3.org/2000/svg">
<path d="M24.4623 5.98556C24.399 6.38139 24.3673 6.77722 24.3673 7.17306C24.3673 10.7356 27.249 13.6156 30.7957 13.6156C31.1915 13.6156 31.5715 13.5697 31.9673 13.5064V26.2823C31.9673 31.6514 28.8007 34.8339 23.4173 34.8339H11.7181C6.33317 34.8339 3.1665 31.6514 3.1665 26.2823V14.5672C3.1665 9.18389 6.33317 5.98556 11.7181 5.98556H24.4623ZM24.7806 15.6122C24.3515 15.5647 23.9256 15.7547 23.6707 16.1031L19.8406 21.0589L15.4532 17.6072C15.184 17.4014 14.8673 17.3206 14.5507 17.3539C14.2356 17.4014 13.9506 17.574 13.759 17.8273L9.07392 23.9247L8.97734 24.0672C8.70817 24.5723 8.83484 25.2215 9.30984 25.5714C9.5315 25.7139 9.769 25.8089 10.0382 25.8089C10.4039 25.8247 10.7507 25.6331 10.9723 25.3339L14.9465 20.2181L19.459 23.6081L19.6015 23.7015C20.1082 23.9706 20.7415 23.8456 21.1057 23.369L25.6815 17.4647L25.6182 17.4964C25.8715 17.1481 25.919 16.7047 25.7448 16.3089C25.5723 15.9131 25.1907 15.6439 24.7806 15.6122ZM31.0175 3.16675C33.1233 3.16675 34.8333 4.87675 34.8333 6.98258C34.8333 9.08842 33.1233 10.7984 31.0175 10.7984C28.9117 10.7984 27.2017 9.08842 27.2017 6.98258C27.2017 4.87675 28.9117 3.16675 31.0175 3.16675Z" fill="#1A1A1A"/>
</svg>
