<svg width="24" height="24" viewBox="0 0 24 24" fill="none" xmlns="http://www.w3.org/2000/svg">
<path d="M3.52739 6.07116C4.94646 4.03306 7.05548 2.57769 9.46449 1.97413C11.8735 1.37057 14.4196 1.65964 16.632 2.78791C18.8444 3.91617 20.5734 5.80732 21.4995 8.11168C22.4255 10.416 22.4859 12.9778 21.6694 15.3232C20.853 17.6686 19.215 19.6391 17.0582 20.8704C14.9014 22.1017 12.3718 22.5104 9.93704 22.021C7.50226 21.5316 5.32701 20.1772 3.81348 18.2082C2.29995 16.2393 1.55051 13.7889 1.70372 11.3101C1.7113 11.2054 1.6976 11.1003 1.66346 11.001C1.62932 10.9017 1.57544 10.8103 1.50507 10.7324C1.43469 10.6545 1.34928 10.5916 1.25397 10.5476C1.15866 10.5035 1.05542 10.4792 0.950472 10.4761C0.773878 10.4733 0.602812 10.5377 0.471941 10.6563C0.34107 10.7749 0.260184 10.9388 0.245675 11.1149C0.228055 11.3889 0.218266 11.6655 0.216309 11.9445C0.216767 14.7443 1.21727 17.4519 3.0375 19.5793C4.85773 21.7067 7.37798 23.1139 10.144 23.5475C12.9101 23.981 15.7401 23.4123 18.1239 21.9438C20.5077 20.4753 22.2886 18.2037 23.1457 15.5383C24.0027 12.8728 23.8795 9.98895 22.7983 7.40632C21.7171 4.82369 19.749 2.71218 17.2486 1.45233C14.7482 0.192484 11.8801 -0.132841 9.16107 0.534986C6.44206 1.20281 4.05099 2.81987 2.4188 5.09473V2.40035C2.4188 2.20564 2.34145 2.0189 2.20377 1.88122C2.06609 1.74354 1.87935 1.66619 1.68464 1.66619C1.48992 1.66619 1.30319 1.74354 1.1655 1.88122C1.02782 2.0189 0.950472 2.20564 0.950472 2.40035V6.80533C0.950472 7.00004 1.02782 7.18677 1.1655 7.32446C1.30319 7.46214 1.48992 7.53949 1.68464 7.53949H6.08962C6.28433 7.53949 6.47107 7.46214 6.60875 7.32446C6.74643 7.18677 6.82378 7.00004 6.82378 6.80533C6.82378 6.61061 6.74643 6.42388 6.60875 6.28619C6.47107 6.14851 6.28433 6.07116 6.08962 6.07116H3.52739ZM11.2156 7.36329C10.9922 7.23738 10.7397 7.17217 10.4832 7.17415C10.2268 7.17614 9.97538 7.24524 9.75396 7.37459C9.53254 7.50394 9.34885 7.68902 9.22118 7.91142C9.09351 8.13381 9.02632 8.38577 9.02627 8.6422V15.2511C9.0262 15.5075 9.09325 15.7594 9.22073 15.9818C9.34822 16.2042 9.53171 16.3893 9.75296 16.5188C9.9742 16.6483 10.2255 16.7176 10.4818 16.7198C10.7382 16.722 10.9906 16.6571 11.2141 16.5315L17.0845 13.2278C17.3115 13.1 17.5004 12.9142 17.6319 12.6893C17.7634 12.4644 17.8327 12.2086 17.8327 11.9481C17.8327 11.6876 17.7634 11.4318 17.6319 11.207C17.5004 10.9821 17.3115 10.7962 17.0845 10.6685L11.2156 7.36329Z" fill="white"/>
</svg>
