<svg width="30" height="30" viewBox="0 0 30 30" fill="none" xmlns="http://www.w3.org/2000/svg">
<path d="M3.75 2.8125C3.41848 2.8125 3.10054 2.9442 2.86612 3.17862C2.6317 3.41304 2.5 3.73098 2.5 4.0625V11.25C2.5 11.5815 2.6317 11.8995 2.86612 12.1339C3.10054 12.3683 3.41848 12.5 3.75 12.5H10.3125C10.644 12.5 10.962 12.3683 11.1964 12.1339C11.4308 11.8995 11.5625 11.5815 11.5625 11.25C11.5625 10.9185 11.4308 10.6005 11.1964 10.3661C10.962 10.1317 10.644 10 10.3125 10H6.07875C7.31 8.52625 8.83875 7.35875 10.6813 6.7875C13.1773 6.00649 15.862 6.07684 18.3138 6.9875C20.79 7.91 23.0762 9.7775 24.2162 11.855C24.3755 12.1457 24.6438 12.3613 24.962 12.4542C25.2803 12.5472 25.6224 12.5099 25.9131 12.3506C26.2039 12.1913 26.4194 11.9231 26.5124 11.6048C26.6053 11.2866 26.568 10.9445 26.4088 10.6537C24.94 7.975 22.14 5.745 19.1862 4.645C16.2172 3.54186 12.9659 3.45569 9.9425 4.4C7.9725 5.01 6.335 6.125 5 7.47375V4.0625C5 3.73098 4.8683 3.41304 4.63388 3.17862C4.39946 2.9442 4.08152 2.8125 3.75 2.8125ZM12.1875 15C12.1874 14.7442 12.1087 14.4946 11.9623 14.2849C11.8158 14.0752 11.6085 13.9155 11.3684 13.8273C11.1282 13.7392 10.8669 13.7268 10.6195 13.7919C10.3721 13.8569 10.1506 13.9963 9.985 14.1912L9.7075 14.5225C9.06375 15.3013 8.36 16.1513 6.8575 17.0525C6.57306 17.2231 6.36802 17.4996 6.28749 17.8214C6.20697 18.1431 6.25756 18.4837 6.42812 18.7681C6.59869 19.0526 6.87527 19.2576 7.19701 19.3381C7.51875 19.4187 7.85931 19.3681 8.14375 19.1975C8.7475 18.835 9.255 18.47 9.6875 18.1163V25C9.6875 25.3315 9.8192 25.6495 10.0536 25.8839C10.288 26.1183 10.606 26.25 10.9375 26.25C11.269 26.25 11.587 26.1183 11.8214 25.8839C12.0558 25.6495 12.1875 25.3315 12.1875 25V15ZM20.3125 13.75C18.58 13.75 17.3125 14.5438 16.5525 15.8263C15.8475 17.0138 15.625 18.5275 15.625 20C15.625 21.4725 15.8475 22.9875 16.5525 24.1738C17.3125 25.4563 18.58 26.25 20.3125 26.25C22.045 26.25 23.3125 25.4563 24.0725 24.1738C24.7775 22.9863 25 21.4725 25 20C25 18.5275 24.7775 17.0125 24.0725 15.8263C23.3125 14.5438 22.045 13.75 20.3125 13.75ZM18.125 20C18.125 18.7112 18.3325 17.725 18.7013 17.1025C19.015 16.575 19.4675 16.25 20.3125 16.25C21.1575 16.25 21.61 16.575 21.9225 17.1025C22.2925 17.725 22.5 18.7112 22.5 20C22.5 21.2888 22.2925 22.275 21.9225 22.8975C21.61 23.425 21.1575 23.75 20.3125 23.75C19.4675 23.75 19.015 23.425 18.7013 22.8975C18.3325 22.275 18.125 21.2888 18.125 20Z" fill="#DB8482"/>
</svg>
