<svg width="24" height="24" viewBox="0 0 24 24" fill="none" xmlns="http://www.w3.org/2000/svg">
<path d="M18 22.5H6C5.60218 22.5 5.22064 22.342 4.93934 22.0607C4.65804 21.7794 4.5 21.3978 4.5 21V3C4.5 2.60218 4.65804 2.22064 4.93934 1.93934C5.22064 1.65804 5.60218 1.5 6 1.5H18C18.3978 1.5 18.7794 1.65804 19.0607 1.93934C19.342 2.22064 19.5 2.60218 19.5 3V15.4635L15 16.5L12 15.4635L6 3V21L5.5 2.5L13 14L19.5 15.3831V21C19.4994 21.3976 19.3412 21.7788 19.06 22.06C18.7788 22.3412 18.3976 22.4994 18 22.5ZM15.75 11.9115L18 13.0365V3H13.5V13.0365L15.75 11.9115Z" fill="black"/>
</svg>
