<svg width="30" height="30" viewBox="0 0 30 30" fill="none" xmlns="http://www.w3.org/2000/svg">
<path d="M15.0178 5.15665C18.78 5.10041 22.3003 6.56543 24.5728 9.37454H20.8594C20.5486 9.37454 20.2505 9.49798 20.0308 9.71771C19.811 9.93743 19.6875 10.2354 19.6875 10.5462C19.6875 10.8569 19.811 11.1549 20.0308 11.3747C20.2505 11.5944 20.5486 11.7178 20.8594 11.7178H26.9532C27.6 11.7178 28.125 11.1929 28.125 10.5462V3.98501C28.125 3.67427 28.0016 3.37626 27.7818 3.15654C27.562 2.93681 27.264 2.81337 26.9532 2.81337C26.6424 2.81337 26.3443 2.93681 26.1245 3.15654C25.9047 3.37626 25.7813 3.67427 25.7813 3.98501V7.19342C23.0157 4.23152 19.0575 2.75338 14.9832 2.81431C9.41253 2.89679 4.95378 5.87744 2.06065 10.3822C1.97563 10.5116 1.91713 10.6567 1.88854 10.8089C1.85995 10.9612 1.86183 11.1175 1.89408 11.269C1.92633 11.4205 1.9883 11.5641 2.07642 11.6915C2.16454 11.8189 2.27704 11.9276 2.40744 12.0113C2.53783 12.0949 2.68351 12.1519 2.83607 12.1789C2.98862 12.2059 3.14502 12.2023 3.2962 12.1685C3.44739 12.1347 3.59036 12.0712 3.71686 11.9818C3.84335 11.8924 3.95086 11.7788 4.03315 11.6475C6.57659 7.68739 10.3622 5.22695 15.0178 5.15665ZM19.7813 14.0611C17.9794 14.0611 16.6753 14.8859 15.8907 16.215C15.1575 17.4542 14.9194 19.0485 14.9194 20.6213C14.9194 22.196 15.1575 23.7894 15.8897 25.0286C16.6753 26.3577 17.9813 27.1825 19.7813 27.1825C21.5841 27.1825 22.8882 26.3577 23.6738 25.0286C24.406 23.7894 24.6441 22.1951 24.6441 20.6213C24.6441 19.0476 24.406 17.4542 23.6738 16.215C22.8882 14.8869 21.5832 14.0611 19.7813 14.0611ZM17.2632 20.6223C17.2632 19.2191 17.4872 18.1187 17.9072 17.4073C18.2757 16.7849 18.8166 16.4044 19.7822 16.4044C20.7478 16.4044 21.2878 16.7849 21.6563 17.4073C22.0763 18.1187 22.3003 19.2191 22.3003 20.6223C22.3003 22.0245 22.0763 23.1249 21.6563 23.8372C21.2878 24.4587 20.7469 24.8402 19.7813 24.8402C18.8157 24.8402 18.2747 24.4587 17.9072 23.8372C17.4872 23.1249 17.2632 22.0245 17.2632 20.6223ZM12.4219 15.2327C12.4218 15.0024 12.3538 14.7772 12.2263 14.5853C12.0989 14.3934 11.9177 14.2433 11.7054 14.1538C11.4932 14.0642 11.2592 14.0393 11.0328 14.082C10.8064 14.1247 10.5976 14.2332 10.4325 14.3938C10.2882 14.5344 10.1653 14.6563 10.0528 14.7688C9.79128 15.0303 9.58409 15.2374 9.29347 15.483C8.8969 15.8176 8.34659 16.2169 7.36597 16.8055C7.23399 16.8847 7.11889 16.989 7.02726 17.1127C6.93562 17.2363 6.86923 17.3767 6.83188 17.526C6.79454 17.6753 6.78696 17.8304 6.80959 17.9826C6.83222 18.1348 6.88462 18.2811 6.96378 18.413C7.04294 18.545 7.14732 18.66 7.27097 18.7517C7.39461 18.8433 7.53509 18.9097 7.68439 18.947C7.83369 18.9843 7.98888 18.9919 8.14111 18.9693C8.29333 18.9467 8.43961 18.8943 8.57159 18.8151C9.08714 18.5103 9.58976 18.1842 10.0782 17.8375V25.7765C10.0782 26.0873 10.2016 26.3853 10.4214 26.605C10.6412 26.8247 10.9392 26.9482 11.25 26.9482C11.5608 26.9482 11.8589 26.8247 12.0787 26.605C12.2984 26.3853 12.4219 26.0873 12.4219 25.7765V15.2327Z" fill="#DB8482"/>
</svg>
