<svg width="65" height="92" viewBox="0 0 65 92" fill="none" xmlns="http://www.w3.org/2000/svg">
<path d="M32.4492 92C32.373 82.2721 31.9922 61.813 31.0783 57.8003M31.0783 57.8003C29.7511 57.4781 28.4502 56.8362 27.2 55.9763M31.0783 57.8003C31.4768 57.4026 31.8969 56.9426 32.3305 56.4323M41.3601 39.5604C43.9192 37.7364 45.0159 37.5844 45.2444 37.7364C50.3472 38.6484 61.2384 37.9188 63.9802 27.7045C64.3458 21.5029 59.5628 21.3205 57.1256 22.0045C59.4105 20.1805 62.3351 15.7118 55.7547 12.4286C49.1743 -4.89924 33.9724 1.25671 27.194 6.50067C18.5116 4.4487 1.1467 4.26631 1.1467 19.9526C0.232754 26.3365 3.81236 28.6925 5.7164 29.0725C2.68177 35.3559 0.523772 46.5863 16.0443 41.4453M41.3601 39.5604C34.9625 42.114 31.2306 38.4964 30.1644 36.3684M41.3601 39.5604C40.95 43.6526 36.1237 51.968 32.3305 56.4323M30.1644 36.3684C29.1742 39.2564 25.0006 44.3028 16.2267 41.3844C16.1657 41.405 16.1048 41.4253 16.0443 41.4453M30.1644 36.3684C29.6352 42.9804 28.3015 56.1587 27.2 55.9763M30.1644 36.3684C30.3137 43.0564 30.956 56.4323 32.3305 56.4323M16.0443 41.4453C17.7538 45.1613 21.8229 52.0228 26.7371 55.6464M27.2 55.9763C27.0449 55.8696 26.8906 55.7596 26.7371 55.6464M26.7371 55.6464C28.106 64.6483 30.4795 84.3849 29.0219 91.316M29.0219 59.6243L30.1644 71.4802M26.7371 17.4446C27.8033 19.1166 29.3875 23.2357 27.194 26.3365M16.0443 5.81669C8.03196 11.2126 -3.83427 23.3269 12.7995 28.6165C25.8231 24.5125 18.9686 20.1806 15.0843 17.4446M41.1317 17.2166C36.562 21.1686 30.3929 30.2125 42.2741 34.7725M40.2177 29.0725C40.2939 30.1365 41.2687 32.1733 44.5589 31.8085M48.6717 31.3525C50.1187 31.2765 53.0586 30.1669 53.2414 26.3365M48.6717 23.1446C52.4798 21.8526 59.2277 21.5942 55.7547 30.8965C52.2817 40.1988 43.0357 34.7725 38.8468 30.8965M41.3601 2.62471C45.1682 3.6887 52.4645 7.13906 51.185 12.4286M32.9062 9.46466C36.0288 7.56467 42.2741 5.86229 42.2741 14.2526M20.3395 34.7725C22.472 34.8485 27.0113 34.0429 28.108 30.2125M18.7401 32.9485C21.2534 32.7965 26.2801 31.8085 26.2801 29.0725" stroke="#9A9A9A"/>
</svg>
