<svg width="30" height="30" viewBox="0 0 30 30" fill="none" xmlns="http://www.w3.org/2000/svg">
<path d="M5.04869 0.719738L15.3383 11.0093L25.5745 0.773052C25.8007 0.532386 26.073 0.339862 26.3754 0.207024C26.6777 0.0741859 27.0037 0.00377021 27.3339 0C28.0409 0 28.7189 0.280849 29.2188 0.780764C29.7188 1.28068 29.9996 1.95871 29.9996 2.6657C30.0058 2.99251 29.9452 3.31716 29.8214 3.6197C29.6976 3.92224 29.5134 4.1963 29.2799 4.42506L18.9103 14.6613L29.2799 25.0309C29.7192 25.4607 29.9768 26.0427 29.9996 26.657C29.9996 27.3639 29.7188 28.042 29.2188 28.5419C28.7189 29.0418 28.0409 29.3226 27.3339 29.3226C26.9942 29.3367 26.6552 29.28 26.3386 29.1561C26.0219 29.0322 25.7345 28.8438 25.4946 28.6029L15.3383 18.3133L5.07535 28.5763C4.85011 28.8089 4.58103 28.9946 4.28364 29.1227C3.98625 29.2508 3.66643 29.3188 3.34264 29.3226C2.63566 29.3226 1.95763 29.0418 1.45771 28.5419C0.957797 28.042 0.676947 27.3639 0.676947 26.657C0.670732 26.3301 0.731369 26.0055 0.855136 25.703C0.978903 25.4004 1.16319 25.1264 1.39669 24.8976L11.7662 14.6613L1.39669 4.29177C0.957338 3.86195 0.699711 3.2799 0.676947 2.6657C0.676947 1.95871 0.957797 1.28068 1.45771 0.780764C1.95763 0.280849 2.63566 0 3.34264 0C3.98241 0.00799709 4.59552 0.266569 5.04869 0.719738Z" fill="black"/>
</svg>
