<svg width="35" height="35" viewBox="0 0 35 35" fill="none" xmlns="http://www.w3.org/2000/svg">
<path d="M32.083 10.2083H23.8186V5.83333C23.8186 5.44656 23.665 5.07563 23.3915 4.80214C23.118 4.52865 22.7471 4.375 22.3603 4.375H12.639C12.2523 4.375 11.8813 4.52865 11.6079 4.80214C11.3344 5.07563 11.1807 5.44656 11.1807 5.83333V16.0417H2.91634C2.52957 16.0417 2.15863 16.1953 1.88514 16.4688C1.61165 16.7423 1.45801 17.1132 1.45801 17.5V29.1667C1.45801 29.5534 1.61165 29.9244 1.88514 30.1979C2.15863 30.4714 2.52957 30.625 2.91634 30.625H32.083C32.4698 30.625 32.8407 30.4714 33.1142 30.1979C33.3877 29.9244 33.5413 29.5534 33.5413 29.1667V11.6667C33.5413 11.2799 33.3877 10.909 33.1142 10.6355C32.8407 10.362 32.4698 10.2083 32.083 10.2083ZM11.1807 27.7083H4.37467V18.9583H11.1807V27.7083ZM20.902 27.7083H14.0974V7.29167H20.902V27.7083ZM30.6247 27.7083H23.8186V13.125H30.6247V27.7083Z" fill="#1A1A1A"/>
</svg>
