<svg width="31" height="29" viewBox="0 0 31 29" fill="none" xmlns="http://www.w3.org/2000/svg">
<path d="M2.875 28.8238C2.31141 28.8238 1.77091 28.6082 1.3724 28.2245C0.973884 27.8407 0.75 27.3202 0.75 26.7775V2.22196C0.750193 1.87329 0.842903 1.53045 1.01933 1.22597C1.19576 0.921492 1.45006 0.665474 1.75809 0.482211C2.06612 0.298947 2.41767 0.194518 2.77939 0.17883C3.1411 0.163142 3.50098 0.236717 3.82487 0.392572L29.3249 12.6704C29.6774 12.8405 29.9738 13.1017 30.1809 13.4248C30.388 13.7478 30.4977 14.12 30.4977 14.4997C30.4977 14.8794 30.388 15.2516 30.1809 15.5747C29.9738 15.8978 29.6774 16.159 29.3249 16.3291L3.82487 28.6069C3.53002 28.7492 3.20481 28.8235 2.875 28.8238ZM5 5.53287V23.4666L23.6235 14.4997L5 5.53287Z" fill="black"/>
</svg>
